<svg width="28" height="22" viewBox="0 0 28 22" fill="none" xmlns="http://www.w3.org/2000/svg">
<path d="M14 15.6875C16.0711 15.6875 17.75 14.0086 17.75 11.9375C17.75 9.86643 16.0711 8.1875 14 8.1875C11.9289 8.1875 10.25 9.86643 10.25 11.9375C10.25 14.0086 11.9289 15.6875 14 15.6875Z" fill="#DDDDDD"/>
<path d="M25.7188 4.4375H20.8555C20.6797 4.4375 20.4617 4.32383 20.2918 4.14453L18.6934 1.63672C18.043 0.6875 17.75 0.6875 16.6953 0.6875H11.3047C10.25 0.6875 9.89844 0.6875 9.3084 1.6373L7.7082 4.14453C7.57812 4.28633 7.39531 4.4375 7.20312 4.4375V3.5C7.20312 3.37568 7.15374 3.25645 7.06583 3.16854C6.97792 3.08064 6.8587 3.03125 6.73438 3.03125H4.39062C4.2663 3.03125 4.14708 3.08064 4.05917 3.16854C3.97126 3.25645 3.92188 3.37568 3.92188 3.5V4.4375H2.28125C1.90829 4.4375 1.5506 4.58566 1.28688 4.84938C1.02316 5.1131 0.875 5.47079 0.875 5.84375V19.9062C0.875 20.2792 1.02316 20.6369 1.28688 20.9006C1.5506 21.1643 1.90829 21.3125 2.28125 21.3125H25.7188C26.0917 21.3125 26.4494 21.1643 26.7131 20.9006C26.9768 20.6369 27.125 20.2792 27.125 19.9062V5.84375C27.125 5.47079 26.9768 5.1131 26.7131 4.84938C26.4494 4.58566 26.0917 4.4375 25.7188 4.4375ZM14.2643 17.5566C13.1305 17.6099 12.0071 17.3189 11.0418 16.7219C10.0765 16.125 9.3143 15.2499 8.85546 14.2118C8.39662 13.1736 8.26257 12.021 8.47092 10.9053C8.67927 9.78954 9.22028 8.76294 10.0229 7.96036C10.8254 7.15778 11.852 6.61677 12.9678 6.40842C14.0835 6.20007 15.2361 6.33412 16.2743 6.79296C17.3124 7.2518 18.1875 8.01396 18.7844 8.9793C19.3814 9.94464 19.6724 11.068 19.6191 12.2018C19.552 13.6003 18.9663 14.9237 17.9762 15.9137C16.9862 16.9038 15.6628 17.4895 14.2643 17.5566Z" fill="#DDDDDD"/>
</svg>
