<svg width="18" height="19" viewBox="0 0 18 19" fill="none" xmlns="http://www.w3.org/2000/svg">
<path d="M0 3.625C0 2.7962 0.32924 2.00134 0.915291 1.41529C1.50134 0.82924 2.2962 0.5 3.125 0.5H5.875C6.04076 0.5 6.19973 0.565848 6.31694 0.683058C6.43415 0.800269 6.5 0.95924 6.5 1.125C6.5 1.29076 6.43415 1.44973 6.31694 1.56694C6.19973 1.68415 6.04076 1.75 5.875 1.75H3.125C2.62772 1.75 2.15081 1.94754 1.79917 2.29917C1.44754 2.65081 1.25 3.12772 1.25 3.625V6.375C1.25 6.54076 1.18415 6.69973 1.06694 6.81694C0.949731 6.93415 0.79076 7 0.625 7C0.45924 7 0.300269 6.93415 0.183058 6.81694C0.065848 6.69973 0 6.54076 0 6.375V3.625ZM11.5 1.125C11.5 0.78 11.78 0.5 12.125 0.5H14.875C15.7038 0.5 16.4987 0.82924 17.0847 1.41529C17.6708 2.00134 18 2.7962 18 3.625V6.375C18 6.54076 17.9342 6.69973 17.8169 6.81694C17.6997 6.93415 17.5408 7 17.375 7C17.2092 7 17.0503 6.93415 16.9331 6.81694C16.8158 6.69973 16.75 6.54076 16.75 6.375V3.625C16.75 3.12772 16.5525 2.65081 16.2008 2.29917C15.8492 1.94754 15.3723 1.75 14.875 1.75H12.125C11.78 1.75 11.5 1.47 11.5 1.125ZM0.625 12C0.97 12 1.25 12.28 1.25 12.625V15.375C1.25 15.8723 1.44754 16.3492 1.79917 16.7008C2.15081 17.0525 2.62772 17.25 3.125 17.25H5.875C6.04076 17.25 6.19973 17.3158 6.31694 17.4331C6.43415 17.5503 6.5 17.7092 6.5 17.875C6.5 18.0408 6.43415 18.1997 6.31694 18.3169C6.19973 18.4342 6.04076 18.5 5.875 18.5H3.125C2.2962 18.5 1.50134 18.1708 0.915291 17.5847C0.32924 16.9987 0 16.2038 0 15.375V12.625C0 12.28 0.28 12 0.625 12ZM17.375 12C17.72 12 18 12.28 18 12.625V15.375C18 16.2038 17.6708 16.9987 17.0847 17.5847C16.4987 18.1708 15.7038 18.5 14.875 18.5H12.125C11.9592 18.5 11.8003 18.4342 11.6831 18.3169C11.5658 18.1997 11.5 18.0408 11.5 17.875C11.5 17.7092 11.5658 17.5503 11.6831 17.4331C11.8003 17.3158 11.9592 17.25 12.125 17.25H14.875C14.896 17.25 14.9175 17.25 14.9385 17.249C15.4245 17.2324 15.885 17.0277 16.223 16.6781C16.5609 16.3285 16.7499 15.8613 16.75 15.375V12.625C16.75 12.28 17.03 12 17.375 12ZM3.75 16.25V16.125C3.75 15.7603 3.89487 15.4106 4.15273 15.1527C4.41059 14.8949 4.76033 14.75 5.125 14.75H12.875C13.2397 14.75 13.5894 14.8949 13.8473 15.1527C14.1051 15.4106 14.25 15.7603 14.25 16.125V16.25H14.875C15.1175 16.25 15.3375 16.151 15.496 15.991C15.4617 15.319 15.1705 14.6858 14.6828 14.2223C14.195 13.7587 13.5479 13.5001 12.875 13.5H5.125C4.45202 13.5 3.80475 13.7585 3.31689 14.2221C2.82903 14.6857 2.53785 15.3189 2.5035 15.991C2.662 16.151 2.882 16.25 3.125 16.25H3.75ZM9 10.75C8.27065 10.75 7.57118 10.4603 7.05546 9.94454C6.53973 9.42882 6.25 8.72935 6.25 8C6.25 7.27065 6.53973 6.57118 7.05546 6.05546C7.57118 5.53973 8.27065 5.25 9 5.25C9.72935 5.25 10.4288 5.53973 10.9445 6.05546C11.4603 6.57118 11.75 7.27065 11.75 8C11.75 8.72935 11.4603 9.42882 10.9445 9.94454C10.4288 10.4603 9.72935 10.75 9 10.75ZM9 12C10.0609 12 11.0783 11.5786 11.8284 10.8284C12.5786 10.0783 13 9.06087 13 8C13 6.93913 12.5786 5.92172 11.8284 5.17157C11.0783 4.42143 10.0609 4 9 4C7.93913 4 6.92172 4.42143 6.17157 5.17157C5.42143 5.92172 5 6.93913 5 8C5 9.06087 5.42143 10.0783 6.17157 10.8284C6.92172 11.5786 7.93913 12 9 12Z" fill="#1C1C1C"/>
</svg>
