<svg width="23" height="24" viewBox="0 0 23 24" fill="none" xmlns="http://www.w3.org/2000/svg">
<path d="M4.6875 0.75C3.4443 0.75 2.25201 1.24386 1.37294 2.12294C0.49386 3.00201 0 4.1943 0 5.4375V7.3125C0 7.56114 0.0987722 7.7996 0.274588 7.97541C0.450403 8.15123 0.68886 8.25 0.9375 8.25C1.18614 8.25 1.4246 8.15123 1.60041 7.97541C1.77623 7.7996 1.875 7.56114 1.875 7.3125V5.4375C1.875 4.69158 2.17132 3.97621 2.69876 3.44876C3.22621 2.92132 3.94158 2.625 4.6875 2.625H6.5625C6.81114 2.625 7.0496 2.52623 7.22541 2.35041C7.40123 2.1746 7.5 1.93614 7.5 1.6875C7.5 1.43886 7.40123 1.2004 7.22541 1.02459C7.0496 0.848772 6.81114 0.75 6.5625 0.75H4.6875ZM15.9375 0.75C15.6889 0.75 15.4504 0.848772 15.2746 1.02459C15.0988 1.2004 15 1.43886 15 1.6875C15 1.93614 15.0988 2.1746 15.2746 2.35041C15.4504 2.52623 15.6889 2.625 15.9375 2.625H17.8125C18.5584 2.625 19.2738 2.92132 19.8012 3.44876C20.3287 3.97621 20.625 4.69158 20.625 5.4375V7.3125C20.625 7.56114 20.7238 7.7996 20.8996 7.97541C21.0754 8.15123 21.3139 8.25 21.5625 8.25C21.8111 8.25 22.0496 8.15123 22.2254 7.97541C22.4012 7.7996 22.5 7.56114 22.5 7.3125V5.4375C22.5 4.1943 22.0061 3.00201 21.1271 2.12294C20.248 1.24386 19.0557 0.75 17.8125 0.75H15.9375ZM1.875 16.6875C1.875 16.4389 1.77623 16.2004 1.60041 16.0246C1.4246 15.8488 1.18614 15.75 0.9375 15.75C0.68886 15.75 0.450403 15.8488 0.274588 16.0246C0.0987722 16.2004 0 16.4389 0 16.6875V18.5625C0 19.8057 0.49386 20.998 1.37294 21.8771C2.25201 22.7561 3.4443 23.25 4.6875 23.25H6.5625C6.81114 23.25 7.0496 23.1512 7.22541 22.9754C7.40123 22.7996 7.5 22.5611 7.5 22.3125C7.5 22.0639 7.40123 21.8254 7.22541 21.6496C7.0496 21.4738 6.81114 21.375 6.5625 21.375H4.6875C4.57875 21.375 4.47 21.3694 4.365 21.3562H4.34625C3.66415 21.2729 3.03618 20.9427 2.58089 20.428C2.1256 19.9133 1.8745 19.2497 1.875 18.5625V16.6875ZM22.5 16.6875C22.5 16.4389 22.4012 16.2004 22.2254 16.0246C22.0496 15.8488 21.8111 15.75 21.5625 15.75C21.3139 15.75 21.0754 15.8488 20.8996 16.0246C20.7238 16.2004 20.625 16.4389 20.625 16.6875V18.5625C20.625 19.3084 20.3287 20.0238 19.8012 20.5512C19.2738 21.0787 18.5584 21.375 17.8125 21.375H15.9375C15.6889 21.375 15.4504 21.4738 15.2746 21.6496C15.0988 21.8254 15 22.0639 15 22.3125C15 22.5611 15.0988 22.7996 15.2746 22.9754C15.4504 23.1512 15.6889 23.25 15.9375 23.25H17.8125C19.0557 23.25 20.248 22.7561 21.1271 21.8771C22.0061 20.998 22.5 19.8057 22.5 18.5625V16.6875ZM5.70563 19.5C5.65028 19.1906 5.6233 18.8768 5.625 18.5625C5.625 18.3139 5.72377 18.0754 5.89959 17.8996C6.0754 17.7238 6.31386 17.625 6.5625 17.625H15.9375C16.1861 17.625 16.4246 17.7238 16.6004 17.8996C16.7762 18.0754 16.875 18.3139 16.875 18.5625C16.875 18.8944 16.8469 19.2056 16.7925 19.5H17.8144C18.0542 19.5004 18.285 19.4088 18.4594 19.2442C18.6338 19.0796 18.7384 18.8544 18.7519 18.615V18.5625C18.7519 17.8166 18.4556 17.1012 17.9281 16.5738C17.4007 16.0463 16.6853 15.75 15.9394 15.75H6.56437C5.83284 15.7492 5.12976 16.0334 4.60432 16.5424C4.07888 17.0514 3.77243 17.7451 3.75 18.4763V18.5625C3.75 18.8111 3.84877 19.0496 4.02459 19.2254C4.2004 19.4012 4.43886 19.5 4.6875 19.5H5.70563ZM13.5938 9.65625C13.5938 9.03465 13.3468 8.43851 12.9073 7.99897C12.4677 7.55943 11.8716 7.3125 11.25 7.3125C10.6284 7.3125 10.0323 7.55943 9.59272 7.99897C9.15318 8.43851 8.90625 9.03465 8.90625 9.65625C8.90625 10.2779 9.15318 10.874 9.59272 11.3135C10.0323 11.7531 10.6284 12 11.25 12C11.8716 12 12.4677 11.7531 12.9073 11.3135C13.3468 10.874 13.5938 10.2779 13.5938 9.65625ZM15.4688 9.65625C15.4688 10.7751 15.0243 11.8482 14.2331 12.6394C13.4419 13.4305 12.3689 13.875 11.25 13.875C10.1311 13.875 9.05806 13.4305 8.26689 12.6394C7.47572 11.8482 7.03125 10.7751 7.03125 9.65625C7.03125 8.53737 7.47572 7.46431 8.26689 6.67314C9.05806 5.88197 10.1311 5.4375 11.25 5.4375C12.3689 5.4375 13.4419 5.88197 14.2331 6.67314C15.0243 7.46431 15.4688 8.53737 15.4688 9.65625Z" fill="#FDFDFD"/>
</svg>
