<svg width="29" height="26" viewBox="0 0 29 26" fill="none" xmlns="http://www.w3.org/2000/svg">
<path d="M28.3484 7.19982C28.0682 6.91542 27.7212 6.73436 27.3516 6.67983C26.9821 6.62531 26.6069 6.69981 26.2741 6.89377L20.7902 10.0598L16.1131 1.05596C15.9456 0.733794 15.709 0.467268 15.4262 0.282248C15.1435 0.0972285 14.8243 0 14.4995 0C14.1748 0 13.8556 0.0972285 13.5729 0.282248C13.2901 0.467268 13.0535 0.733794 12.8859 1.05596L8.20886 10.0598L2.72381 6.89513C2.39139 6.7028 2.01725 6.62872 1.64853 6.68221C1.27981 6.73571 0.933014 6.91438 0.651822 7.19573C0.37063 7.47708 0.167625 7.84851 0.0683807 8.26324C-0.0308634 8.67797 -0.0219064 9.11743 0.0941232 9.52628L4.42043 24.8758C4.48558 25.107 4.59474 25.3184 4.73984 25.4942C4.88494 25.6701 5.06228 25.806 5.25878 25.8919C5.45528 25.9778 5.66593 26.0116 5.87519 25.9906C6.08444 25.9697 6.28697 25.8946 6.46782 25.7709C6.49588 25.7519 9.39801 23.8331 14.4972 23.8331C19.5964 23.8331 22.4985 25.7546 22.5207 25.7695C22.7016 25.8948 22.9045 25.9713 23.1144 25.9934C23.3243 26.0154 23.5358 25.9824 23.7332 25.8968C23.9305 25.8112 24.1087 25.6752 24.2545 25.4989C24.4002 25.3226 24.5099 25.1105 24.5752 24.8785L28.9015 9.53711C29.0209 9.12805 29.032 8.68699 28.9335 8.27053C28.8349 7.85408 28.6312 7.48123 28.3484 7.19982ZM22.3933 22.1431C20.8323 21.4497 18.1453 20.5831 14.4972 20.5831C10.8491 20.5831 8.16209 21.4524 6.60112 22.1458L3.44408 10.9454L7.71543 13.406C8.13988 13.6489 8.62755 13.6987 9.08215 13.5455C9.53675 13.3923 9.92524 13.0473 10.1709 12.5786L14.4972 4.25179L18.8235 12.5799C19.0694 13.0484 19.4579 13.3932 19.9125 13.5461C20.3671 13.699 20.8547 13.649 21.279 13.406L25.5492 10.9414L22.3933 22.1431ZM20.0933 17.9451C20.0422 18.3286 19.8743 18.6783 19.62 18.9309C19.3656 19.1835 19.0416 19.3223 18.7066 19.3223C18.6342 19.322 18.5619 19.3157 18.4903 19.3034C15.8416 18.8411 13.1481 18.8411 10.4995 19.3034C10.1317 19.3691 9.7564 19.2629 9.45621 19.0082C9.15601 18.7535 8.95548 18.3711 8.89873 17.9451C8.84198 17.5192 8.93366 17.0846 9.1536 16.7369C9.37354 16.3892 9.70372 16.157 10.0715 16.0913C13.0038 15.5785 15.9859 15.5785 18.9182 16.0913C19.1005 16.1235 19.2756 16.197 19.4334 16.3077C19.5911 16.4183 19.7285 16.5639 19.8376 16.7361C19.9468 16.9082 20.0255 17.1037 20.0694 17.3111C20.1133 17.5186 20.1214 17.734 20.0933 17.9451Z" fill="#D96A10"/>
</svg>
