<svg width="25" height="26" viewBox="0 0 25 26" fill="none" xmlns="http://www.w3.org/2000/svg">
<path fill-rule="evenodd" clip-rule="evenodd" d="M4.16723 10.9165C3.79887 10.9165 3.44559 11.0628 3.18512 11.3233C2.92465 11.5838 2.77832 11.937 2.77832 12.3054V13.6943C2.77832 14.0626 2.92465 14.4159 3.18512 14.6764C3.44559 14.9368 3.79887 15.0832 4.16723 15.0832H5.55613C5.92449 15.0832 6.27777 14.9368 6.53824 14.6764C6.79871 14.4159 6.94504 14.0626 6.94504 13.6943V12.3054C6.94504 11.937 6.79871 11.5838 6.53824 11.3233C6.27777 11.0628 5.92449 10.9165 5.55613 10.9165H4.16723ZM4.16723 12.3054V13.6943H5.55613V12.3054H4.16723ZM8.33395 12.3054C8.33395 11.937 8.48028 11.5838 8.74075 11.3233C9.00122 11.0628 9.35449 10.9165 9.72285 10.9165H11.1118C11.4801 10.9165 11.8334 11.0628 12.0939 11.3233C12.3543 11.5838 12.5007 11.937 12.5007 12.3054V13.6943C12.5007 14.0626 12.3543 14.4159 12.0939 14.6764C11.8334 14.9368 11.4801 15.0832 11.1118 15.0832H9.72285C9.35449 15.0832 9.00122 14.9368 8.74075 14.6764C8.48028 14.4159 8.33395 14.0626 8.33395 13.6943V12.3054ZM9.72285 12.3054H11.1118V13.6943H9.72285V12.3054ZM15.2785 10.9165C14.9101 10.9165 14.5568 11.0628 14.2964 11.3233C14.0359 11.5838 13.8896 11.937 13.8896 12.3054V13.6943C13.8896 14.0626 14.0359 14.4159 14.2964 14.6764C14.5568 14.9368 14.9101 15.0832 15.2785 15.0832H16.6674C17.0357 15.0832 17.389 14.9368 17.6495 14.6764C17.91 14.4159 18.0563 14.0626 18.0563 13.6943V12.3054C18.0563 11.937 17.91 11.5838 17.6495 11.3233C17.389 11.0628 17.0357 10.9165 16.6674 10.9165H15.2785ZM15.2785 12.3054V13.6943H16.6674V12.3054H15.2785ZM2.77832 17.8609C2.77832 17.4926 2.92465 17.1393 3.18512 16.8789C3.44559 16.6184 3.79887 16.4721 4.16723 16.4721H5.55613C5.92449 16.4721 6.27777 16.6184 6.53824 16.8789C6.79871 17.1393 6.94504 17.4926 6.94504 17.8609V19.2498C6.94504 19.6182 6.79871 19.9715 6.53824 20.2319C6.27777 20.4924 5.92449 20.6387 5.55613 20.6387H4.16723C3.79887 20.6387 3.44559 20.4924 3.18512 20.2319C2.92465 19.9715 2.77832 19.6182 2.77832 19.2498V17.8609ZM5.55613 17.8609V19.2498H4.16723V17.8609H5.55613ZM9.72285 16.4721C9.35449 16.4721 9.00122 16.6184 8.74075 16.8789C8.48028 17.1393 8.33395 17.4926 8.33395 17.8609V19.2498C8.33395 19.6182 8.48028 19.9715 8.74075 20.2319C9.00122 20.4924 9.35449 20.6387 9.72285 20.6387H11.1118C11.4801 20.6387 11.8334 20.4924 12.0939 20.2319C12.3543 19.9715 12.5007 19.6182 12.5007 19.2498V17.8609C12.5007 17.4926 12.3543 17.1393 12.0939 16.8789C11.8334 16.6184 11.4801 16.4721 11.1118 16.4721H9.72285ZM11.1118 17.8609H9.72285V19.2498H11.1118V17.8609Z" fill="#D96A10"/>
<path d="M20.8342 18.9025C20.8342 18.7183 20.7611 18.5416 20.6308 18.4114C20.5006 18.2812 20.3239 18.208 20.1398 18.208C19.9556 18.208 19.7789 18.2812 19.6487 18.4114C19.5185 18.5416 19.4453 18.7183 19.4453 18.9025V20.9261L20.3432 21.824C20.4742 21.9505 20.6496 22.0205 20.8317 22.0189C21.0138 22.0173 21.188 21.9443 21.3167 21.8155C21.4455 21.6868 21.5185 21.5126 21.5201 21.3305C21.5217 21.1484 21.4517 20.973 21.3252 20.842L20.8342 20.3511V18.9025Z" fill="#D96A10"/>
<path fill-rule="evenodd" clip-rule="evenodd" d="M4.16672 1.19444C4.16672 1.01027 4.23989 0.833632 4.37012 0.703398C4.50036 0.573165 4.67699 0.5 4.86117 0.5C5.04535 0.5 5.22199 0.573165 5.35223 0.703398C5.48246 0.833632 5.55563 1.01027 5.55563 1.19444V4.66667C5.55563 4.85084 5.62879 5.02748 5.75903 5.15771C5.88926 5.28795 6.0659 5.36111 6.25008 5.36111C6.43426 5.36111 6.6109 5.28795 6.74113 5.15771C6.87137 5.02748 6.94453 4.85084 6.94453 4.66667V2.58333H13.8891V1.19444C13.8891 1.01027 13.9622 0.833632 14.0925 0.703398C14.2227 0.573165 14.3993 0.5 14.5835 0.5C14.7677 0.5 14.9443 0.573165 15.0746 0.703398C15.2048 0.833632 15.278 1.01027 15.278 1.19444V4.66667C15.278 4.85084 15.3511 5.02748 15.4814 5.15771C15.6116 5.28795 15.7882 5.36111 15.9724 5.36111C16.1566 5.36111 16.3332 5.28795 16.4635 5.15771C16.5937 5.02748 16.6669 4.85084 16.6669 4.66667V2.58333H18.7502C19.3028 2.58333 19.8327 2.80283 20.2234 3.19353C20.6141 3.58423 20.8336 4.11413 20.8336 4.66667V15.8264C22.05 16.0022 23.1546 16.6321 23.9253 17.5895C24.696 18.5468 25.0755 19.7605 24.9875 20.9863C24.8995 22.2122 24.3505 23.3592 23.451 24.1966C22.5515 25.034 21.3682 25.4997 20.1391 25.5C19.3554 25.5005 18.5831 25.3113 17.8884 24.9485C17.1936 24.5857 16.597 24.0601 16.1495 23.4167H2.08336C1.53082 23.4167 1.00091 23.1972 0.610202 22.8065C0.219496 22.4158 0 21.8859 0 21.3333V4.66667C0 4.11413 0.219496 3.58423 0.610202 3.19353C1.00091 2.80283 1.53082 2.58333 2.08336 2.58333H4.16672V1.19444ZM15.278 20.6389C15.2778 19.4698 15.699 18.3398 16.4642 17.4559C17.2295 16.5721 18.2876 15.9935 19.4447 15.8264V8.83333H1.38891V21.3333C1.38891 21.5175 1.46207 21.6941 1.59231 21.8244C1.72254 21.9546 1.89918 22.0278 2.08336 22.0278H15.4794C15.3454 21.577 15.2776 21.1092 15.278 20.6389ZM23.6114 20.6389C23.6114 21.5598 23.2456 22.443 22.5944 23.0941C21.9432 23.7453 21.0601 24.1111 20.1391 24.1111C19.2182 24.1111 18.3351 23.7453 17.6839 23.0941C17.0327 22.443 16.6669 21.5598 16.6669 20.6389C16.6669 19.718 17.0327 18.8348 17.6839 18.1837C18.3351 17.5325 19.2182 17.1667 20.1391 17.1667C21.0601 17.1667 21.9432 17.5325 22.5944 18.1837C23.2456 18.8348 23.6114 19.718 23.6114 20.6389Z" fill="#D96A10"/>
</svg>
