<svg width="18" height="19" viewBox="0 0 18 19" fill="none" xmlns="http://www.w3.org/2000/svg">
<path d="M3.36214 18.5C2.78786 18.5 2.298 18.3204 1.89257 17.9613C1.488 17.6021 1.28571 17.1672 1.28571 16.6566V2.52029H0V1.37888H5.14286V0.5H12.8571V1.37888H18V2.52029H16.7143V16.6566C16.7143 17.1817 16.5163 17.62 16.1203 17.9715C15.7234 18.3238 15.2293 18.5 14.6379 18.5H3.36214ZM15.4286 2.52029H2.57143V16.6566C2.57143 16.8613 2.64557 17.0295 2.79386 17.1611C2.94214 17.2928 3.13157 17.3586 3.36214 17.3586H14.6379C14.835 17.3586 15.0163 17.2855 15.1817 17.1394C15.3463 16.9926 15.4286 16.8316 15.4286 16.6566V2.52029ZM6.18171 15.0758H7.46743V4.80311H6.18171V15.0758ZM10.5326 15.0758H11.8183V4.80311H10.5326V15.0758Z" fill="black"/>
</svg>
