<svg width="52" height="55" viewBox="0 0 52 55" fill="none" xmlns="http://www.w3.org/2000/svg">
<path d="M49.3857 27.508C48.6963 27.508 48.0352 27.7976 47.5477 28.3132C47.0603 28.8288 46.7864 29.528 46.7864 30.2572V46.7524C46.7864 47.4815 46.5126 48.1808 46.0251 48.6964C45.5377 49.2119 44.8766 49.5016 44.1872 49.5016H7.79774C7.10838 49.5016 6.44725 49.2119 5.9598 48.6964C5.47234 48.1808 5.19849 47.4815 5.19849 46.7524V8.26355C5.19849 7.53442 5.47234 6.83515 5.9598 6.31957C6.44725 5.80399 7.10838 5.51435 7.79774 5.51435H23.3932C24.0826 5.51435 24.7437 5.2247 25.2312 4.70912C25.7186 4.19355 25.9925 3.49428 25.9925 2.76514C25.9925 2.03601 25.7186 1.33674 25.2312 0.821164C24.7437 0.305588 24.0826 0.0159408 23.3932 0.0159408H7.79774C5.72965 0.0159408 3.74627 0.884883 2.28391 2.43161C0.821545 3.97834 0 6.07615 0 8.26355V46.7524C0 48.9398 0.821545 51.0376 2.28391 52.5843C3.74627 54.1311 5.72965 55 7.79774 55H44.1872C46.2553 55 48.2387 54.1311 49.701 52.5843C51.1634 51.0376 51.9849 48.9398 51.9849 46.7524V30.2572C51.9849 29.528 51.7111 28.8288 51.2236 28.3132C50.7362 27.7976 50.075 27.508 49.3857 27.508ZM10.397 29.5974V41.254C10.397 41.9831 10.6708 42.6824 11.1583 43.198C11.6457 43.7135 12.3069 44.0032 12.9962 44.0032H24.017C24.3591 44.0053 24.6982 43.9359 25.0149 43.7991C25.3316 43.6623 25.6196 43.4607 25.8625 43.2059L43.8493 24.1539L51.2311 16.5112C51.4748 16.2556 51.6681 15.9515 51.8001 15.6165C51.9321 15.2815 52 14.9222 52 14.5592C52 14.1963 51.9321 13.837 51.8001 13.5019C51.6681 13.1669 51.4748 12.8629 51.2311 12.6073L40.2103 0.81321C39.9687 0.555531 39.6812 0.351006 39.3645 0.211433C39.0477 0.0718593 38.708 0 38.3649 0C38.0217 0 37.682 0.0718593 37.3653 0.211433C37.0485 0.351006 36.761 0.555531 36.5194 0.81321L29.1895 8.59345L11.1508 27.6454C10.9099 27.9023 10.7193 28.207 10.5899 28.5419C10.4606 28.8769 10.395 29.2356 10.397 29.5974ZM38.3649 6.64152L45.7207 14.4218L42.0298 18.3256L34.6739 10.5454L38.3649 6.64152ZM15.5955 30.7245L31.009 14.4218L38.3649 22.202L22.9513 38.5048H15.5955V30.7245Z" fill="#D96A10" fill-opacity="0.9"/>
</svg>
