<svg width="19" height="23" viewBox="0 0 19 23" fill="none" xmlns="http://www.w3.org/2000/svg">
<path d="M2.375 23C1.72188 23 1.16256 22.7853 0.697064 22.356C0.231564 21.9267 -0.00078965 21.4112 2.01613e-06 20.8095V9.85714C2.01613e-06 9.25476 0.232752 8.7389 0.698252 8.30957C1.16375 7.88024 1.72267 7.66594 2.375 7.66667H3.5625V5.47619C3.5625 3.96111 4.14161 2.66946 5.29981 1.60124C6.45802 0.533016 7.85808 -0.000729411 9.5 7.48114e-07C11.1427 7.48114e-07 12.5432 0.534112 13.7014 1.60233C14.8596 2.67056 15.4383 3.96184 15.4375 5.47619V7.66667H16.625C17.2781 7.66667 17.8374 7.88133 18.3029 8.31067C18.7684 8.74 19.0008 9.25549 19 9.85714V20.8095C19 21.4119 18.7672 21.9278 18.3017 22.3571C17.8362 22.7864 17.2773 23.0007 16.625 23H2.375ZM9.5 17.5238C10.1531 17.5238 10.7124 17.3091 11.1779 16.8798C11.6434 16.4505 11.8758 15.935 11.875 15.3333C11.875 14.731 11.6422 14.2151 11.1767 13.7858C10.7112 13.3564 10.1523 13.1421 9.5 13.1429C8.84688 13.1429 8.28756 13.3575 7.82206 13.7869C7.35656 14.2162 7.12421 14.7317 7.125 15.3333C7.125 15.9357 7.35775 16.4516 7.82325 16.8809C8.28875 17.3102 8.84767 17.5245 9.5 17.5238ZM5.9375 7.66667H13.0625V5.47619C13.0625 4.56349 12.7161 3.7877 12.0234 3.14881C11.3307 2.50992 10.4896 2.19048 9.5 2.19048C8.51042 2.19048 7.66927 2.50992 6.97656 3.14881C6.28386 3.7877 5.9375 4.56349 5.9375 5.47619V7.66667Z" fill="black" fill-opacity="0.4"/>
</svg>
