<svg width="19" height="21" viewBox="0 0 19 21" fill="none" xmlns="http://www.w3.org/2000/svg">
<path d="M13.0003 1.52718C12.1115 0.542341 10.8702 0 9.5 0C8.12254 0 6.87707 0.539059 5.9924 1.5178C5.09815 2.50733 4.66244 3.85217 4.76475 5.30434C4.96753 8.16933 7.09172 10.4999 9.5 10.4999C11.9083 10.4999 14.0288 8.1698 14.2348 5.30528C14.3385 3.86623 13.9 2.5242 13.0003 1.52718ZM17.5382 20.9999H1.46176C1.25133 21.0027 1.04294 20.9573 0.85175 20.8671C0.660558 20.7768 0.491372 20.644 0.356501 20.4782C0.0596346 20.1139 -0.0600256 19.6166 0.0285777 19.1136C0.414048 16.919 1.61704 15.0754 3.50786 13.7812C5.18767 12.6323 7.31552 11.9999 9.5 11.9999C11.6845 11.9999 13.8123 12.6327 15.4921 13.7812C17.383 15.0749 18.586 16.9185 18.9714 19.1132C19.06 19.6161 18.9404 20.1135 18.6435 20.4777C18.5087 20.6436 18.3395 20.7765 18.1483 20.8669C17.9571 20.9572 17.7487 21.0026 17.5382 20.9999Z" fill="black" fill-opacity="0.4"/>
</svg>
