<svg width="48" height="41" viewBox="0 0 48 41" fill="none" xmlns="http://www.w3.org/2000/svg">
<path d="M42.8949 27.7773L36.2493 27.1315C35.4679 27.0534 34.6759 27.127 33.9327 27.3469C33.1895 27.5667 32.5145 27.927 31.9585 28.4008L27.1443 32.4979C19.7169 29.283 13.6799 24.1451 9.90241 17.8239L14.7427 13.7044C15.8677 12.7469 16.4172 11.4109 16.234 10.0526L15.4753 4.44129C15.327 3.35504 14.7144 2.35316 13.7543 1.62638C12.7942 0.899606 11.5536 0.498703 10.2687 0.500003H5.74237C2.78586 0.500003 0.326465 2.59312 0.509611 5.1093C1.89629 24.1255 19.7662 39.3117 42.0838 40.4918C45.0404 40.6477 47.4997 38.5546 47.4997 36.0384V32.1862C47.5259 29.9372 45.5375 28.0445 42.8949 27.7773Z" fill="#D96A10"/>
</svg>
