<svg width="61" height="61" viewBox="0 0 61 61" fill="none" xmlns="http://www.w3.org/2000/svg">
<path d="M57.5876 30.2938C57.5876 15.2254 45.3623 3 30.2938 3C15.2254 3 3 15.2254 3 30.2938C3 45.3623 15.2254 57.5876 30.2938 57.5876C45.3623 57.5876 57.5876 45.3623 57.5876 30.2938Z" stroke="#0D2468" stroke-opacity="0.9" stroke-width="6" stroke-miterlimit="10"/>
<path d="M42.4545 22.0281L40.8382 20.1473C38.6278 17.8331 35.7224 16.3036 32.5634 15.7915C29.4044 15.2793 26.1646 15.8124 23.3363 17.3098C20.5079 18.8071 18.2457 21.1869 16.8935 24.0873C15.5412 26.9878 15.1727 30.2505 15.8441 33.3795C16.5155 36.5085 18.19 39.3328 20.6132 41.4232C23.0364 43.5136 26.0757 44.7558 29.2694 44.961C32.463 45.1662 35.6364 44.3233 38.3072 42.5602C40.978 40.7972 43.0002 38.2104 44.0665 35.1931" stroke="#0D2468" stroke-opacity="0.9" stroke-width="6" stroke-miterlimit="10" stroke-linecap="round"/>
<path d="M46.1189 16.9316C45.9599 16.9323 45.8026 16.9645 45.6562 17.0265C45.5098 17.0885 45.3771 17.179 45.266 17.2927L36.8021 25.7566C36.6303 25.9277 36.5132 26.146 36.4657 26.3837C36.4181 26.6214 36.4422 26.8679 36.535 27.0919C36.6277 27.3159 36.7849 27.5074 36.9866 27.6419C37.1883 27.7765 37.4253 27.8481 37.6678 27.8477H46.1317C46.4567 27.8477 46.7684 27.7186 46.9982 27.4888C47.228 27.259 47.3571 26.9473 47.3571 26.6223V18.1556C47.3575 17.9937 47.3258 17.8335 47.2638 17.684C47.2018 17.5345 47.1109 17.3988 46.9961 17.2847C46.8814 17.1706 46.7451 17.0804 46.5953 17.0193C46.4455 16.9582 46.285 16.9274 46.1232 16.9288L46.1189 16.9316Z" fill="#0D2468" fill-opacity="0.9"/>
</svg>
