<svg width="13" height="14" viewBox="0 0 13 14" fill="none" xmlns="http://www.w3.org/2000/svg">
<path d="M13 3.11111V12.4444C13 12.8722 12.8584 13.2386 12.5753 13.5434C12.2922 13.8483 11.9523 14.0005 11.5556 14H1.44445C1.04722 14 0.707057 13.8476 0.423946 13.5427C0.140834 13.2378 -0.000480255 12.8717 1.22618e-06 12.4444V1.55556C1.22618e-06 1.12778 0.141557 0.761445 0.424668 0.456557C0.707779 0.151668 1.0477 -0.000517198 1.44445 1.32051e-06H10.1111L13 3.11111ZM11.5556 3.77222L9.49722 1.55556H1.44445V12.4444H11.5556V3.77222ZM6.5 11.6667C7.10185 11.6667 7.61343 11.4398 8.03472 10.9861C8.45602 10.5324 8.66667 9.98148 8.66667 9.33333C8.66667 8.68518 8.45602 8.13426 8.03472 7.68056C7.61343 7.22685 7.10185 7 6.5 7C5.89815 7 5.38657 7.22685 4.96528 7.68056C4.54398 8.13426 4.33333 8.68518 4.33333 9.33333C4.33333 9.98148 4.54398 10.5324 4.96528 10.9861C5.38657 11.4398 5.89815 11.6667 6.5 11.6667ZM2.16667 5.44444H8.66667V2.33333H2.16667V5.44444ZM1.44445 3.77222V12.4444V1.55556V3.77222Z" fill="#FDFDFD"/>
</svg>
