<svg width="75" height="110" viewBox="0 0 75 110" fill="none" xmlns="http://www.w3.org/2000/svg">
<path d="M59.5125 6.875C61.4585 6.875 63.3248 7.59933 64.7009 8.88864C66.0769 10.178 66.85 11.9266 66.85 13.75V96.25C66.85 98.0734 66.0769 99.822 64.7009 101.111C63.3248 102.401 61.4585 103.125 59.5125 103.125H15.4875C13.5415 103.125 11.6752 102.401 10.2991 101.111C8.92306 99.822 8.15 98.0734 8.15 96.25V13.75C8.15 11.9266 8.92306 10.178 10.2991 8.88864C11.6752 7.59933 13.5415 6.875 15.4875 6.875H59.5125ZM15.4875 0C11.5954 0 7.8628 1.44866 5.11071 4.02728C2.35861 6.60591 0.8125 10.1033 0.8125 13.75V96.25C0.8125 99.8967 2.35861 103.394 5.11071 105.973C7.8628 108.551 11.5954 110 15.4875 110H59.5125C63.4046 110 67.1372 108.551 69.8893 105.973C72.6414 103.394 74.1875 99.8967 74.1875 96.25V13.75C74.1875 10.1033 72.6414 6.60591 69.8893 4.02728C67.1372 1.44866 63.4046 0 59.5125 0L15.4875 0Z" fill="#0D2468" fill-opacity="0.9"/>
<path d="M37.5001 96.25C39.4461 96.25 41.3124 95.5257 42.6885 94.2364C44.0645 92.947 44.8376 91.1984 44.8376 89.375C44.8376 87.5516 44.0645 85.803 42.6885 84.5136C41.3124 83.2243 39.4461 82.5 37.5001 82.5C35.5541 82.5 33.6878 83.2243 32.3117 84.5136C30.9357 85.803 30.1626 87.5516 30.1626 89.375C30.1626 91.1984 30.9357 92.947 32.3117 94.2364C33.6878 95.5257 35.5541 96.25 37.5001 96.25Z" fill="#0D2468" fill-opacity="0.9"/>
</svg>
