<?xml version="1.0" encoding="utf-8"?><svg xmlns="http://www.w3.org/2000/svg" xmlns:xlink="http://www.w3.org/1999/xlink"><symbol fill="none" viewBox="0 0 28 22" id="camera" xmlns="http://www.w3.org/2000/svg"><path d="M14 15.688a3.75 3.75 0 1 0 0-7.5 3.75 3.75 0 0 0 0 7.5Z" fill="#DDD"/><path d="M25.719 4.438h-4.864c-.175 0-.393-.114-.563-.293l-1.599-2.508c-.65-.95-.943-.95-1.998-.95h-5.39c-1.055 0-1.407 0-1.997.95l-1.6 2.508c-.13.141-.313.293-.505.293V3.5a.469.469 0 0 0-.469-.469H4.391a.469.469 0 0 0-.47.469v.938h-1.64A1.406 1.406 0 0 0 .875 5.843v14.062a1.406 1.406 0 0 0 1.406 1.407H25.72a1.406 1.406 0 0 0 1.406-1.407V5.844a1.406 1.406 0 0 0-1.406-1.407ZM14.264 17.556a5.624 5.624 0 1 1-.528-11.237 5.624 5.624 0 0 1 .528 11.237Z" fill="#DDD"/></symbol><symbol fill="none" viewBox="0 0 28 22" id="camera" xmlns="http://www.w3.org/2000/svg"><path d="M14 15.688a3.75 3.75 0 1 0 0-7.5 3.75 3.75 0 0 0 0 7.5Z" fill="#DDD"/><path d="M25.719 4.438h-4.864c-.175 0-.393-.114-.563-.293l-1.599-2.508c-.65-.95-.943-.95-1.998-.95h-5.39c-1.055 0-1.407 0-1.997.95l-1.6 2.508c-.13.141-.313.293-.505.293V3.5a.469.469 0 0 0-.469-.469H4.391a.469.469 0 0 0-.47.469v.938h-1.64A1.406 1.406 0 0 0 .875 5.843v14.062a1.406 1.406 0 0 0 1.406 1.407H25.72a1.406 1.406 0 0 0 1.406-1.407V5.844a1.406 1.406 0 0 0-1.406-1.407ZM14.264 17.556a5.624 5.624 0 1 1-.528-11.237 5.624 5.624 0 0 1 .528 11.237Z" fill="#DDD"/></symbol><symbol fill="none" viewBox="0 0 27 27" id="check" xmlns="http://www.w3.org/2000/svg"><path d="M13.125.375a13.125 13.125 0 1 0 0 26.25 13.125 13.125 0 0 0 0-26.25ZM11.25 18.741l-4.687-4.688 1.49-1.49 3.197 3.196 6.947-6.947 1.496 1.487-8.443 8.442Z" fill="#F24E1E"/></symbol><symbol fill="none" viewBox="0 0 27 27" id="check" xmlns="http://www.w3.org/2000/svg"><path d="M13.125.375a13.125 13.125 0 1 0 0 26.25 13.125 13.125 0 0 0 0-26.25ZM11.25 18.741l-4.687-4.688 1.49-1.49 3.197 3.196 6.947-6.947 1.496 1.487-8.443 8.442Z" fill="#F24E1E"/></symbol><symbol fill="none" viewBox="0 0 38 37" id="close" xmlns="http://www.w3.org/2000/svg"><path d="M18.696.62C8.389.62.196 8.487.196 18.38c0 9.896 8.193 17.76 18.5 17.76s18.5-7.864 18.5-17.76c0-9.894-8.193-17.76-18.5-17.76Zm0 32.983c-8.722 0-15.857-6.85-15.857-15.222 0-8.373 7.135-15.223 15.857-15.223 8.721 0 15.857 6.85 15.857 15.223 0 8.372-7.136 15.222-15.857 15.222Z" fill="#D96A10"/><path d="m25.831 27.26-7.135-6.85-7.136 6.85-2.114-2.03 7.135-6.85-7.135-6.85L11.56 9.5l7.136 6.85L25.83 9.5l2.115 2.03-7.136 6.85 7.136 6.85-2.115 2.03Z" fill="#D96A10"/></symbol><symbol fill="none" viewBox="0 0 38 37" id="close" xmlns="http://www.w3.org/2000/svg"><path d="M18.696.62C8.389.62.196 8.487.196 18.38c0 9.896 8.193 17.76 18.5 17.76s18.5-7.864 18.5-17.76c0-9.894-8.193-17.76-18.5-17.76Zm0 32.983c-8.722 0-15.857-6.85-15.857-15.222 0-8.373 7.135-15.223 15.857-15.223 8.721 0 15.857 6.85 15.857 15.223 0 8.372-7.136 15.222-15.857 15.222Z" fill="#D96A10"/><path d="m25.831 27.26-7.135-6.85-7.136 6.85-2.114-2.03 7.135-6.85-7.135-6.85L11.56 9.5l7.136 6.85L25.83 9.5l2.115 2.03-7.136 6.85 7.136 6.85-2.115 2.03Z" fill="#D96A10"/></symbol><symbol fill="none" viewBox="0 0 23 24" id="crop" xmlns="http://www.w3.org/2000/svg"><path d="M4.688.75A4.687 4.687 0 0 0 0 5.438v1.875a.937.937 0 1 0 1.875 0V5.438a2.813 2.813 0 0 1 2.813-2.813h1.875a.937.937 0 1 0 0-1.875H4.688Zm11.25 0a.938.938 0 0 0 0 1.875h1.874a2.812 2.812 0 0 1 2.813 2.813v1.875a.938.938 0 0 0 1.875 0V5.438A4.688 4.688 0 0 0 17.812.75h-1.875ZM1.874 16.688a.937.937 0 0 0-1.875 0v1.875a4.688 4.688 0 0 0 4.688 4.687h1.875a.938.938 0 0 0 0-1.875H4.688a2.6 2.6 0 0 1-.323-.019h-.019a2.812 2.812 0 0 1-2.471-2.794v-1.875Zm20.625 0a.938.938 0 0 0-1.875 0v1.875a2.812 2.812 0 0 1-2.813 2.812h-1.875a.938.938 0 0 0 0 1.875h1.876a4.688 4.688 0 0 0 4.687-4.688v-1.875ZM5.706 19.5a5.165 5.165 0 0 1-.081-.938.937.937 0 0 1 .938-.937h9.375a.938.938 0 0 1 .937.938c0 .331-.028.643-.082.937h1.021a.937.937 0 0 0 .938-.885v-.052a2.812 2.812 0 0 0-2.813-2.813H6.564a2.813 2.813 0 0 0-2.814 2.726v.087a.937.937 0 0 0 .938.937h1.018Zm7.888-9.844a2.344 2.344 0 1 0-4.688 0 2.344 2.344 0 0 0 4.688 0Zm1.875 0a4.219 4.219 0 1 1-8.438 0 4.219 4.219 0 0 1 8.438 0Z" fill="#FDFDFD"/></symbol><symbol fill="none" viewBox="0 0 23 24" id="crop" xmlns="http://www.w3.org/2000/svg"><path d="M4.688.75A4.687 4.687 0 0 0 0 5.438v1.875a.937.937 0 1 0 1.875 0V5.438a2.813 2.813 0 0 1 2.813-2.813h1.875a.937.937 0 1 0 0-1.875H4.688Zm11.25 0a.938.938 0 0 0 0 1.875h1.874a2.812 2.812 0 0 1 2.813 2.813v1.875a.938.938 0 0 0 1.875 0V5.438A4.688 4.688 0 0 0 17.812.75h-1.875ZM1.874 16.688a.937.937 0 0 0-1.875 0v1.875a4.688 4.688 0 0 0 4.688 4.687h1.875a.938.938 0 0 0 0-1.875H4.688a2.6 2.6 0 0 1-.323-.019h-.019a2.812 2.812 0 0 1-2.471-2.794v-1.875Zm20.625 0a.938.938 0 0 0-1.875 0v1.875a2.812 2.812 0 0 1-2.813 2.812h-1.875a.938.938 0 0 0 0 1.875h1.876a4.688 4.688 0 0 0 4.687-4.688v-1.875ZM5.706 19.5a5.165 5.165 0 0 1-.081-.938.937.937 0 0 1 .938-.937h9.375a.938.938 0 0 1 .937.938c0 .331-.028.643-.082.937h1.021a.937.937 0 0 0 .938-.885v-.052a2.812 2.812 0 0 0-2.813-2.813H6.564a2.813 2.813 0 0 0-2.814 2.726v.087a.937.937 0 0 0 .938.937h1.018Zm7.888-9.844a2.344 2.344 0 1 0-4.688 0 2.344 2.344 0 0 0 4.688 0Zm1.875 0a4.219 4.219 0 1 1-8.438 0 4.219 4.219 0 0 1 8.438 0Z" fill="#FDFDFD"/></symbol><symbol fill="none" viewBox="0 0 119 107" id="crown" xmlns="http://www.w3.org/2000/svg"><path d="M116.447 30.348c-.887-.916-1.985-1.498-3.153-1.674-1.167-.176-2.353.062-3.406.685L85.2 43.897 64.59 3.405C64.06 2.366 63.31 1.507 62.417.91A5.258 5.258 0 0 0 59.49 0a5.258 5.258 0 0 0-2.927.91c-.894.597-1.642 1.456-2.171 2.495L33.78 43.915 9.103 29.375c-1.05-.617-2.232-.853-3.396-.68-1.163.175-2.258.752-3.145 1.659-.888.906-1.53 2.103-1.844 3.44a8.277 8.277 0 0 0 .075 4.072l18.193 65.922c.183.662.489 1.267.896 1.771.407.503.905.892 1.456 1.138a3.392 3.392 0 0 0 1.729.281 3.53 3.53 0 0 0 1.661-.632c.123-.087 12.696-8.653 34.762-8.653 22.067 0 34.64 8.566 34.753 8.647a3.526 3.526 0 0 0 1.664.64 3.377 3.377 0 0 0 1.734-.277 3.954 3.954 0 0 0 1.46-1.139 4.884 4.884 0 0 0 .899-1.776l18.192-65.905c.374-1.32.408-2.74.097-4.082-.31-1.343-.952-2.545-1.842-3.454ZM93.908 95.85c-5.9-2.96-17.661-7.461-34.418-7.461-16.756 0-28.517 4.5-34.417 7.46L9.688 40.124l22.16 13.067c1.341.782 2.882.942 4.318.448 1.436-.494 2.663-1.606 3.44-3.117L59.49 11.43l19.884 39.078c.777 1.51 2.004 2.62 3.439 3.115 1.435.494 2.974.335 4.315-.446l22.165-13.055L93.908 95.85Z" fill="#0D2468" fill-opacity=".9"/></symbol><symbol fill="none" viewBox="0 0 119 107" id="crown" xmlns="http://www.w3.org/2000/svg"><path d="M116.447 30.348c-.887-.916-1.985-1.498-3.153-1.674-1.167-.176-2.353.062-3.406.685L85.2 43.897 64.59 3.405C64.06 2.366 63.31 1.507 62.417.91A5.258 5.258 0 0 0 59.49 0a5.258 5.258 0 0 0-2.927.91c-.894.597-1.642 1.456-2.171 2.495L33.78 43.915 9.103 29.375c-1.05-.617-2.232-.853-3.396-.68-1.163.175-2.258.752-3.145 1.659-.888.906-1.53 2.103-1.844 3.44a8.277 8.277 0 0 0 .075 4.072l18.193 65.922c.183.662.489 1.267.896 1.771.407.503.905.892 1.456 1.138a3.392 3.392 0 0 0 1.729.281 3.53 3.53 0 0 0 1.661-.632c.123-.087 12.696-8.653 34.762-8.653 22.067 0 34.64 8.566 34.753 8.647a3.526 3.526 0 0 0 1.664.64 3.377 3.377 0 0 0 1.734-.277 3.954 3.954 0 0 0 1.46-1.139 4.884 4.884 0 0 0 .899-1.776l18.192-65.905c.374-1.32.408-2.74.097-4.082-.31-1.343-.952-2.545-1.842-3.454ZM93.908 95.85c-5.9-2.96-17.661-7.461-34.418-7.461-16.756 0-28.517 4.5-34.417 7.46L9.688 40.124l22.16 13.067c1.341.782 2.882.942 4.318.448 1.436-.494 2.663-1.606 3.44-3.117L59.49 11.43l19.884 39.078c.777 1.51 2.004 2.62 3.439 3.115 1.435.494 2.974.335 4.315-.446l22.165-13.055L93.908 95.85Z" fill="#0D2468" fill-opacity=".9"/></symbol><symbol fill="none" viewBox="0 0 13 16" id="delete" xmlns="http://www.w3.org/2000/svg"><path d="M2.438 15.5c-.447 0-.83-.163-1.149-.49a1.623 1.623 0 0 1-.476-1.177V3H0V1.333h4.063V.5h4.875v.833H13V3h-.813v10.833c0 .459-.159.851-.477 1.178-.319.327-.701.49-1.148.489H2.438ZM10.562 3H2.438v10.833h8.124V3Zm-6.5 9.167h1.625v-7.5H4.063v7.5Zm3.25 0h1.625v-7.5H7.313v7.5Z" fill="#FDFDFD"/></symbol><symbol fill="none" viewBox="0 0 13 16" id="delete" xmlns="http://www.w3.org/2000/svg"><path d="M2.438 15.5c-.447 0-.83-.163-1.149-.49a1.623 1.623 0 0 1-.476-1.177V3H0V1.333h4.063V.5h4.875v.833H13V3h-.813v10.833c0 .459-.159.851-.477 1.178-.319.327-.701.49-1.148.489H2.438ZM10.562 3H2.438v10.833h8.124V3Zm-6.5 9.167h1.625v-7.5H4.063v7.5Zm3.25 0h1.625v-7.5H7.313v7.5Z" fill="#FDFDFD"/></symbol><symbol fill="none" viewBox="0 0 52 55" id="edit" xmlns="http://www.w3.org/2000/svg"><path d="M49.386 27.508c-.69 0-1.35.29-1.838.805a2.832 2.832 0 0 0-.762 1.944v16.495c0 .73-.273 1.429-.76 1.944a2.53 2.53 0 0 1-1.839.806H7.797c-.689 0-1.35-.29-1.837-.806a2.832 2.832 0 0 1-.762-1.944V8.264c0-.73.274-1.429.762-1.944a2.53 2.53 0 0 1 1.838-.806h15.595c.69 0 1.35-.29 1.838-.805a2.832 2.832 0 0 0 .761-1.944c0-.729-.273-1.428-.76-1.944a2.53 2.53 0 0 0-1.839-.805H7.798c-2.068 0-4.052.869-5.514 2.416C.822 3.978 0 6.076 0 8.264v38.488c0 2.188.822 4.286 2.284 5.832C3.746 54.131 5.73 55 7.798 55h36.39c2.067 0 4.05-.869 5.513-2.416 1.462-1.546 2.284-3.644 2.284-5.832V30.257c0-.729-.274-1.428-.761-1.944a2.53 2.53 0 0 0-1.838-.805Zm-38.989 2.09v11.656c0 .73.274 1.428.761 1.944a2.53 2.53 0 0 0 1.838.805h11.021c.342.002.681-.067.998-.204.317-.137.605-.338.848-.593l17.986-19.052 7.382-7.643c.244-.255.437-.56.57-.894a2.886 2.886 0 0 0 0-2.115 2.763 2.763 0 0 0-.57-.895L40.211.813a2.596 2.596 0 0 0-.846-.602 2.477 2.477 0 0 0-2 0c-.317.14-.604.345-.846.602l-7.33 7.78-18.038 19.052c-.241.257-.432.562-.561.897a2.89 2.89 0 0 0-.193 1.055ZM38.365 6.641l7.356 7.78-3.691 3.904-7.356-7.78 3.69-3.904Zm-22.77 24.082L31.01 14.422l7.356 7.78L22.95 38.505h-7.356v-7.78Z" fill="#0D2468" fill-opacity=".9"/></symbol><symbol fill="none" viewBox="0 0 52 55" id="edit" xmlns="http://www.w3.org/2000/svg"><path d="M49.386 27.508c-.69 0-1.35.29-1.838.805a2.832 2.832 0 0 0-.762 1.944v16.495c0 .73-.273 1.429-.76 1.944a2.53 2.53 0 0 1-1.839.806H7.797c-.689 0-1.35-.29-1.837-.806a2.832 2.832 0 0 1-.762-1.944V8.264c0-.73.274-1.429.762-1.944a2.53 2.53 0 0 1 1.838-.806h15.595c.69 0 1.35-.29 1.838-.805a2.832 2.832 0 0 0 .761-1.944c0-.729-.273-1.428-.76-1.944a2.53 2.53 0 0 0-1.839-.805H7.798c-2.068 0-4.052.869-5.514 2.416C.822 3.978 0 6.076 0 8.264v38.488c0 2.188.822 4.286 2.284 5.832C3.746 54.131 5.73 55 7.798 55h36.39c2.067 0 4.05-.869 5.513-2.416 1.462-1.546 2.284-3.644 2.284-5.832V30.257c0-.729-.274-1.428-.761-1.944a2.53 2.53 0 0 0-1.838-.805Zm-38.989 2.09v11.656c0 .73.274 1.428.761 1.944a2.53 2.53 0 0 0 1.838.805h11.021c.342.002.681-.067.998-.204.317-.137.605-.338.848-.593l17.986-19.052 7.382-7.643c.244-.255.437-.56.57-.894a2.886 2.886 0 0 0 0-2.115 2.763 2.763 0 0 0-.57-.895L40.211.813a2.596 2.596 0 0 0-.846-.602 2.477 2.477 0 0 0-2 0c-.317.14-.604.345-.846.602l-7.33 7.78-18.038 19.052c-.241.257-.432.562-.561.897a2.89 2.89 0 0 0-.193 1.055ZM38.365 6.641l7.356 7.78-3.691 3.904-7.356-7.78 3.69-3.904Zm-22.77 24.082L31.01 14.422l7.356 7.78L22.95 38.505h-7.356v-7.78Z" fill="#0D2468" fill-opacity=".9"/></symbol><symbol fill="none" viewBox="0 0 19 23" id="lock" xmlns="http://www.w3.org/2000/svg"><path d="M2.375 23a2.388 2.388 0 0 1-1.678-.644C.232 21.926 0 21.411 0 20.809V9.857C0 9.255.233 8.74.698 8.31a2.382 2.382 0 0 1 1.677-.643h1.188v-2.19c0-1.516.579-2.808 1.737-3.876C6.458.533 7.858 0 9.5 0c1.643 0 3.043.534 4.201 1.602 1.159 1.069 1.737 2.36 1.736 3.874v2.19h1.188c.653 0 1.212.215 1.678.645.465.429.698.944.697 1.546V20.81c0 .602-.233 1.118-.698 1.547a2.383 2.383 0 0 1-1.677.643H2.375ZM9.5 17.524c.653 0 1.212-.215 1.678-.644.465-.43.698-.945.697-1.547 0-.602-.233-1.118-.698-1.547a2.382 2.382 0 0 0-1.677-.643c-.653 0-1.212.214-1.678.644-.465.43-.698.945-.697 1.546 0 .603.233 1.119.698 1.548.466.43 1.025.643 1.677.643ZM5.937 7.667h7.125v-2.19c0-.914-.346-1.69-1.039-2.328-.692-.64-1.533-.959-2.523-.959-.99 0-1.83.32-2.523.959-.693.639-1.04 1.414-1.04 2.327v2.19Z" fill="#000" fill-opacity=".4"/></symbol><symbol fill="none" viewBox="0 0 19 23" id="lock" xmlns="http://www.w3.org/2000/svg"><path d="M2.375 23a2.388 2.388 0 0 1-1.678-.644C.232 21.926 0 21.411 0 20.809V9.857C0 9.255.233 8.74.698 8.31a2.382 2.382 0 0 1 1.677-.643h1.188v-2.19c0-1.516.579-2.808 1.737-3.876C6.458.533 7.858 0 9.5 0c1.643 0 3.043.534 4.201 1.602 1.159 1.069 1.737 2.36 1.736 3.874v2.19h1.188c.653 0 1.212.215 1.678.645.465.429.698.944.697 1.546V20.81c0 .602-.233 1.118-.698 1.547a2.383 2.383 0 0 1-1.677.643H2.375ZM9.5 17.524c.653 0 1.212-.215 1.678-.644.465-.43.698-.945.697-1.547 0-.602-.233-1.118-.698-1.547a2.382 2.382 0 0 0-1.677-.643c-.653 0-1.212.214-1.678.644-.465.43-.698.945-.697 1.546 0 .603.233 1.119.698 1.548.466.43 1.025.643 1.677.643ZM5.937 7.667h7.125v-2.19c0-.914-.346-1.69-1.039-2.328-.692-.64-1.533-.959-2.523-.959-.99 0-1.83.32-2.523.959-.693.639-1.04 1.414-1.04 2.327v2.19Z" fill="#000" fill-opacity=".4"/></symbol><symbol fill="none" viewBox="0 0 52 41" id="message" xmlns="http://www.w3.org/2000/svg"><path d="M45.615.5H6.385C3.05.5.5 3.389.5 7.167v26.666c0 3.778 2.55 6.667 5.885 6.667h39.23c3.335 0 5.885-2.889 5.885-6.667V7.167C51.5 3.389 48.95.5 45.615.5Zm1.57 34.222-15.3-12.444L26 26.722l-6.08-4.444L4.814 34.722l12.358-14.444L2.07 6.944 26 21.611 49.735 7.167 34.827 20.5l12.358 14.222Z" fill="#D96A10"/></symbol><symbol fill="none" viewBox="0 0 52 41" id="message" xmlns="http://www.w3.org/2000/svg"><path d="M45.615.5H6.385C3.05.5.5 3.389.5 7.167v26.666c0 3.778 2.55 6.667 5.885 6.667h39.23c3.335 0 5.885-2.889 5.885-6.667V7.167C51.5 3.389 48.95.5 45.615.5Zm1.57 34.222-15.3-12.444L26 26.722l-6.08-4.444L4.814 34.722l12.358-14.444L2.07 6.944 26 21.611 49.735 7.167 34.827 20.5l12.358 14.222Z" fill="#D96A10"/></symbol><symbol fill="none" viewBox="0 0 19 21" id="person" xmlns="http://www.w3.org/2000/svg"><path d="M13 1.527C12.111.542 10.87 0 9.5 0 8.123 0 6.877.54 5.992 1.518c-.894.99-1.33 2.334-1.227 3.786C4.968 8.17 7.092 10.5 9.5 10.5c2.408 0 4.529-2.33 4.735-5.195.104-1.439-.335-2.78-1.235-3.778ZM17.538 21H1.462a1.386 1.386 0 0 1-.61-.133 1.421 1.421 0 0 1-.495-.389c-.297-.364-.417-.861-.328-1.364.385-2.195 1.588-4.039 3.479-5.333C5.188 12.632 7.316 12 9.5 12s4.312.633 5.992 1.781c1.891 1.294 3.094 3.138 3.48 5.332.088.503-.032 1-.329 1.365a1.421 1.421 0 0 1-.495.389c-.19.09-.4.136-.61.133Z" fill="#000" fill-opacity=".4"/></symbol><symbol fill="none" viewBox="0 0 19 21" id="person" xmlns="http://www.w3.org/2000/svg"><path d="M13 1.527C12.111.542 10.87 0 9.5 0 8.123 0 6.877.54 5.992 1.518c-.894.99-1.33 2.334-1.227 3.786C4.968 8.17 7.092 10.5 9.5 10.5c2.408 0 4.529-2.33 4.735-5.195.104-1.439-.335-2.78-1.235-3.778ZM17.538 21H1.462a1.386 1.386 0 0 1-.61-.133 1.421 1.421 0 0 1-.495-.389c-.297-.364-.417-.861-.328-1.364.385-2.195 1.588-4.039 3.479-5.333C5.188 12.632 7.316 12 9.5 12s4.312.633 5.992 1.781c1.891 1.294 3.094 3.138 3.48 5.332.088.503-.032 1-.329 1.365a1.421 1.421 0 0 1-.495.389c-.19.09-.4.136-.61.133Z" fill="#000" fill-opacity=".4"/></symbol><symbol fill="none" viewBox="0 0 48 41" id="phone" xmlns="http://www.w3.org/2000/svg"><path d="m42.895 27.777-6.646-.646a6.066 6.066 0 0 0-2.316.216c-.743.22-1.419.58-1.974 1.054l-4.815 4.097c-7.427-3.215-13.464-8.353-17.242-14.674l4.84-4.12c1.126-.957 1.675-2.293 1.492-3.651l-.759-5.612c-.148-1.086-.76-2.088-1.72-2.815C12.794.9 11.553.5 10.268.5H5.742C2.786.5.326 2.593.51 5.11c1.386 19.015 19.256 34.202 41.574 35.382 2.956.156 5.416-1.937 5.416-4.454v-3.852c.026-2.249-1.962-4.142-4.605-4.409Z" fill="#D96A10"/></symbol><symbol fill="none" viewBox="0 0 48 41" id="phone" xmlns="http://www.w3.org/2000/svg"><path d="m42.895 27.777-6.646-.646a6.066 6.066 0 0 0-2.316.216c-.743.22-1.419.58-1.974 1.054l-4.815 4.097c-7.427-3.215-13.464-8.353-17.242-14.674l4.84-4.12c1.126-.957 1.675-2.293 1.492-3.651l-.759-5.612c-.148-1.086-.76-2.088-1.72-2.815C12.794.9 11.553.5 10.268.5H5.742C2.786.5.326 2.593.51 5.11c1.386 19.015 19.256 34.202 41.574 35.382 2.956.156 5.416-1.937 5.416-4.454v-3.852c.026-2.249-1.962-4.142-4.605-4.409Z" fill="#D96A10"/></symbol><symbol fill="none" viewBox="0 0 61 61" id="reload" xmlns="http://www.w3.org/2000/svg"><path d="M57.588 30.294C57.588 15.225 45.362 3 30.294 3 15.225 3 3 15.225 3 30.294c0 15.068 12.225 27.294 27.294 27.294 15.068 0 27.294-12.226 27.294-27.294Z" stroke="#0D2468" stroke-opacity=".9" stroke-width="6" stroke-miterlimit="10"/><path d="m42.455 22.028-1.617-1.88a14.695 14.695 0 1 0 3.228 15.045" stroke="#0D2468" stroke-opacity=".9" stroke-width="6" stroke-miterlimit="10" stroke-linecap="round"/><path d="M46.119 16.932a1.2 1.2 0 0 0-.853.36l-8.464 8.465a1.223 1.223 0 0 0 .866 2.09h8.464a1.225 1.225 0 0 0 1.225-1.225v-8.466a1.223 1.223 0 0 0-1.234-1.227l-.004.003Z" fill="#0D2468" fill-opacity=".9"/></symbol><symbol fill="none" viewBox="0 0 61 61" id="reload" xmlns="http://www.w3.org/2000/svg"><path d="M57.588 30.294C57.588 15.225 45.362 3 30.294 3 15.225 3 3 15.225 3 30.294c0 15.068 12.225 27.294 27.294 27.294 15.068 0 27.294-12.226 27.294-27.294Z" stroke="#0D2468" stroke-opacity=".9" stroke-width="6" stroke-miterlimit="10"/><path d="m42.455 22.028-1.617-1.88a14.695 14.695 0 1 0 3.228 15.045" stroke="#0D2468" stroke-opacity=".9" stroke-width="6" stroke-miterlimit="10" stroke-linecap="round"/><path d="M46.119 16.932a1.2 1.2 0 0 0-.853.36l-8.464 8.465a1.223 1.223 0 0 0 .866 2.09h8.464a1.225 1.225 0 0 0 1.225-1.225v-8.466a1.223 1.223 0 0 0-1.234-1.227l-.004.003Z" fill="#0D2468" fill-opacity=".9"/></symbol><symbol fill="none" viewBox="0 0 13 14" id="save" xmlns="http://www.w3.org/2000/svg"><path d="M13 3.111v9.333c0 .428-.142.795-.425 1.1a1.34 1.34 0 0 1-1.02.456H1.446c-.398 0-.738-.152-1.021-.457A1.555 1.555 0 0 1 0 12.444V1.556C0 1.128.142.76.425.456A1.34 1.34 0 0 1 1.445 0h8.666L13 3.111Zm-1.444.661L9.497 1.556H1.444v10.888h10.112V3.772ZM6.5 11.667c.602 0 1.113-.227 1.535-.68.421-.455.632-1.006.632-1.654 0-.648-.211-1.199-.632-1.652C7.613 7.227 7.102 7 6.5 7c-.602 0-1.113.227-1.535.68-.421.454-.632 1.005-.632 1.653 0 .648.211 1.2.632 1.653.422.454.933.68 1.535.68ZM2.167 5.444h6.5v-3.11h-6.5v3.11Zm-.723-1.672v8.672V1.556v2.216Z" fill="#FDFDFD"/></symbol><symbol fill="none" viewBox="0 0 13 14" id="save" xmlns="http://www.w3.org/2000/svg"><path d="M13 3.111v9.333c0 .428-.142.795-.425 1.1a1.34 1.34 0 0 1-1.02.456H1.446c-.398 0-.738-.152-1.021-.457A1.555 1.555 0 0 1 0 12.444V1.556C0 1.128.142.76.425.456A1.34 1.34 0 0 1 1.445 0h8.666L13 3.111Zm-1.444.661L9.497 1.556H1.444v10.888h10.112V3.772ZM6.5 11.667c.602 0 1.113-.227 1.535-.68.421-.455.632-1.006.632-1.654 0-.648-.211-1.199-.632-1.652C7.613 7.227 7.102 7 6.5 7c-.602 0-1.113.227-1.535.68-.421.454-.632 1.005-.632 1.653 0 .648.211 1.2.632 1.653.422.454.933.68 1.535.68ZM2.167 5.444h6.5v-3.11h-6.5v3.11Zm-.723-1.672v8.672V1.556v2.216Z" fill="#FDFDFD"/></symbol><symbol fill="none" viewBox="0 0 75 110" id="smartphone" xmlns="http://www.w3.org/2000/svg"><path d="M59.513 6.875c1.946 0 3.812.724 5.188 2.014 1.376 1.289 2.149 3.038 2.149 4.861v82.5c0 1.823-.773 3.572-2.15 4.861-1.375 1.29-3.242 2.014-5.188 2.014H15.488c-1.946 0-3.812-.724-5.188-2.014-1.376-1.289-2.149-3.038-2.149-4.861v-82.5c0-1.823.773-3.572 2.15-4.861 1.375-1.29 3.241-2.014 5.188-2.014h44.025ZM15.486 0C11.595 0 7.863 1.449 5.111 4.027 2.359 6.606.813 10.103.813 13.75v82.5c0 3.647 1.546 7.144 4.298 9.723C7.863 108.551 11.595 110 15.488 110h44.025c3.892 0 7.624-1.449 10.376-4.027 2.752-2.579 4.299-6.076 4.299-9.723v-82.5c0-3.647-1.547-7.144-4.299-9.723C67.137 1.45 63.405 0 59.513 0H15.486Z" fill="#0D2468" fill-opacity=".9"/><path d="M37.5 96.25c1.946 0 3.812-.724 5.188-2.014 1.377-1.289 2.15-3.038 2.15-4.861s-.773-3.572-2.15-4.861c-1.376-1.29-3.242-2.014-5.188-2.014-1.946 0-3.812.724-5.188 2.014-1.376 1.289-2.15 3.038-2.15 4.861s.774 3.572 2.15 4.861c1.376 1.29 3.242 2.014 5.188 2.014Z" fill="#0D2468" fill-opacity=".9"/></symbol><symbol fill="none" viewBox="0 0 75 110" id="smartphone" xmlns="http://www.w3.org/2000/svg"><path d="M59.513 6.875c1.946 0 3.812.724 5.188 2.014 1.376 1.289 2.149 3.038 2.149 4.861v82.5c0 1.823-.773 3.572-2.15 4.861-1.375 1.29-3.242 2.014-5.188 2.014H15.488c-1.946 0-3.812-.724-5.188-2.014-1.376-1.289-2.149-3.038-2.149-4.861v-82.5c0-1.823.773-3.572 2.15-4.861 1.375-1.29 3.241-2.014 5.188-2.014h44.025ZM15.486 0C11.595 0 7.863 1.449 5.111 4.027 2.359 6.606.813 10.103.813 13.75v82.5c0 3.647 1.546 7.144 4.298 9.723C7.863 108.551 11.595 110 15.488 110h44.025c3.892 0 7.624-1.449 10.376-4.027 2.752-2.579 4.299-6.076 4.299-9.723v-82.5c0-3.647-1.547-7.144-4.299-9.723C67.137 1.45 63.405 0 59.513 0H15.486Z" fill="#0D2468" fill-opacity=".9"/><path d="M37.5 96.25c1.946 0 3.812-.724 5.188-2.014 1.377-1.289 2.15-3.038 2.15-4.861s-.773-3.572-2.15-4.861c-1.376-1.29-3.242-2.014-5.188-2.014-1.946 0-3.812.724-5.188 2.014-1.376 1.289-2.15 3.038-2.15 4.861s.774 3.572 2.15 4.861c1.376 1.29 3.242 2.014 5.188 2.014Z" fill="#0D2468" fill-opacity=".9"/></symbol><symbol fill="none" viewBox="0 0 99 95" id="star" xmlns="http://www.w3.org/2000/svg"><path d="M98.647 35.756a7.037 7.037 0 0 0-2.32-3.333 7.088 7.088 0 0 0-3.782-1.506l-26.243-2.252-10.286-24.35a7.023 7.023 0 0 0-2.597-3.138 7.07 7.07 0 0 0-7.816 0 7.023 7.023 0 0 0-2.596 3.137L32.751 28.665 6.478 30.931a7.087 7.087 0 0 0-3.8 1.498A7.037 7.037 0 0 0 .346 35.77 7.008 7.008 0 0 0 .26 39.84a7.035 7.035 0 0 0 2.191 3.434l19.933 17.34-5.974 25.75a7.008 7.008 0 0 0 .26 4.054 7.041 7.041 0 0 0 2.466 3.237 7.09 7.09 0 0 0 7.808.336L49.48 80.354 72.064 93.99a7.095 7.095 0 0 0 7.808-.336 7.041 7.041 0 0 0 2.467-3.237 7.008 7.008 0 0 0 .26-4.054l-5.97-25.776 19.928-17.314a7.034 7.034 0 0 0 2.187-3.444 7.007 7.007 0 0 0-.097-4.073Zm-6.725 2.2L71.994 55.268a7.035 7.035 0 0 0-2.087 3.144 7.007 7.007 0 0 0-.158 3.766l5.987 25.794L53.17 74.337a7.05 7.05 0 0 0-7.309 0L23.326 87.973l5.948-25.777a7.008 7.008 0 0 0-.158-3.765 7.036 7.036 0 0 0-2.087-3.145L7.092 37.982a.163.163 0 0 1 0-.04l26.265-2.26a7.091 7.091 0 0 0 3.549-1.328 7.044 7.044 0 0 0 2.35-2.962L49.51 7.072l10.252 24.32a7.043 7.043 0 0 0 2.35 2.962 7.09 7.09 0 0 0 3.549 1.327l26.269 2.261v.03l-.01-.017Z" fill="#0D2468" fill-opacity=".9"/></symbol><symbol fill="none" viewBox="0 0 99 95" id="star" xmlns="http://www.w3.org/2000/svg"><path d="M98.647 35.756a7.037 7.037 0 0 0-2.32-3.333 7.088 7.088 0 0 0-3.782-1.506l-26.243-2.252-10.286-24.35a7.023 7.023 0 0 0-2.597-3.138 7.07 7.07 0 0 0-7.816 0 7.023 7.023 0 0 0-2.596 3.137L32.751 28.665 6.478 30.931a7.087 7.087 0 0 0-3.8 1.498A7.037 7.037 0 0 0 .346 35.77 7.008 7.008 0 0 0 .26 39.84a7.035 7.035 0 0 0 2.191 3.434l19.933 17.34-5.974 25.75a7.008 7.008 0 0 0 .26 4.054 7.041 7.041 0 0 0 2.466 3.237 7.09 7.09 0 0 0 7.808.336L49.48 80.354 72.064 93.99a7.095 7.095 0 0 0 7.808-.336 7.041 7.041 0 0 0 2.467-3.237 7.008 7.008 0 0 0 .26-4.054l-5.97-25.776 19.928-17.314a7.034 7.034 0 0 0 2.187-3.444 7.007 7.007 0 0 0-.097-4.073Zm-6.725 2.2L71.994 55.268a7.035 7.035 0 0 0-2.087 3.144 7.007 7.007 0 0 0-.158 3.766l5.987 25.794L53.17 74.337a7.05 7.05 0 0 0-7.309 0L23.326 87.973l5.948-25.777a7.008 7.008 0 0 0-.158-3.765 7.036 7.036 0 0 0-2.087-3.145L7.092 37.982a.163.163 0 0 1 0-.04l26.265-2.26a7.091 7.091 0 0 0 3.549-1.328 7.044 7.044 0 0 0 2.35-2.962L49.51 7.072l10.252 24.32a7.043 7.043 0 0 0 2.35 2.962 7.09 7.09 0 0 0 3.549 1.327l26.269 2.261v.03l-.01-.017Z" fill="#0D2468" fill-opacity=".9"/></symbol><symbol fill="none" viewBox="0 0 96 78" id="study" xmlns="http://www.w3.org/2000/svg"><path d="M47.667 0 0 26l17.333 9.447v26L47.667 78 78 61.447v-26l8.667-4.724v29.944h8.666V26L47.667 0ZM77.22 26 47.667 42.12 18.113 26 47.667 9.88 77.22 26Zm-7.887 30.333L47.667 68.12 26 56.333V40.17L47.667 52l21.666-11.83v16.163Z" fill="#D96A10"/></symbol><symbol fill="none" viewBox="0 0 96 78" id="study" xmlns="http://www.w3.org/2000/svg"><path d="M47.667 0 0 26l17.333 9.447v26L47.667 78 78 61.447v-26l8.667-4.724v29.944h8.666V26L47.667 0ZM77.22 26 47.667 42.12 18.113 26 47.667 9.88 77.22 26Zm-7.887 30.333L47.667 68.12 26 56.333V40.17L47.667 52l21.666-11.83v16.163Z" fill="#D96A10"/></symbol><symbol fill="none" viewBox="0 0 63 59" id="support" xmlns="http://www.w3.org/2000/svg"><path d="M18.389 18.177H44.61M18.39 31.117h19.667M51.166 2a9.9 9.9 0 0 1 6.954 2.843A9.643 9.643 0 0 1 61 11.706v25.882a9.642 9.642 0 0 1-2.88 6.863 9.9 9.9 0 0 1-6.953 2.843h-16.39L18.39 57v-9.706h-6.556a9.9 9.9 0 0 1-6.953-2.843A9.642 9.642 0 0 1 2 37.588V11.706a9.643 9.643 0 0 1 2.88-6.863A9.9 9.9 0 0 1 11.833 2h39.334Z" stroke="#F8F8F8" stroke-width="3" stroke-linecap="round" stroke-linejoin="round"/></symbol><symbol fill="none" viewBox="0 0 63 59" id="support" xmlns="http://www.w3.org/2000/svg"><path d="M18.389 18.177H44.61M18.39 31.117h19.667M51.166 2a9.9 9.9 0 0 1 6.954 2.843A9.643 9.643 0 0 1 61 11.706v25.882a9.642 9.642 0 0 1-2.88 6.863 9.9 9.9 0 0 1-6.953 2.843h-16.39L18.39 57v-9.706h-6.556a9.9 9.9 0 0 1-6.953-2.843A9.642 9.642 0 0 1 2 37.588V11.706a9.643 9.643 0 0 1 2.88-6.863A9.9 9.9 0 0 1 11.833 2h39.334Z" stroke="#F8F8F8" stroke-width="3" stroke-linecap="round" stroke-linejoin="round"/></symbol><symbol fill="none" viewBox="0 0 26 16" id="update" xmlns="http://www.w3.org/2000/svg"><path d="M23.483 9.932c.142-.49.23-1.002.23-1.532 0-3.316-2.998-5.998-6.694-5.998-.953 0-1.851.18-2.671.499C13.528 1.194 11.633 0 9.43 0 6.47 0 4.074 2.148 4.074 4.8c0 .179.04.345.059.52C1.989 6.208.5 8.142.5 10.4c0 3.093 2.798 5.6 6.25 5.6h15.18c1.973 0 3.57-1.43 3.57-3.198 0-1.269-.825-2.35-2.017-2.87Zm-5.127-1.134h-4.462l1.63-1.46C14.88 6.76 13.986 6.4 13 6.4c-1.973 0-3.57 1.43-3.57 3.198s1.597 3.198 3.57 3.198c1.216 0 2.285-.546 2.93-1.373l1.264 1.133c-.981 1.115-2.485 1.846-4.19 1.846-2.958 0-5.356-2.148-5.356-4.8 0-2.65 2.398-4.8 5.357-4.8 1.48 0 2.817.54 3.789 1.405l1.567-1.404v3.994h-.005Z" fill="#FDFDFD"/></symbol><symbol fill="none" viewBox="0 0 26 16" id="update" xmlns="http://www.w3.org/2000/svg"><path d="M23.483 9.932c.142-.49.23-1.002.23-1.532 0-3.316-2.998-5.998-6.694-5.998-.953 0-1.851.18-2.671.499C13.528 1.194 11.633 0 9.43 0 6.47 0 4.074 2.148 4.074 4.8c0 .179.04.345.059.52C1.989 6.208.5 8.142.5 10.4c0 3.093 2.798 5.6 6.25 5.6h15.18c1.973 0 3.57-1.43 3.57-3.198 0-1.269-.825-2.35-2.017-2.87Zm-5.127-1.134h-4.462l1.63-1.46C14.88 6.76 13.986 6.4 13 6.4c-1.973 0-3.57 1.43-3.57 3.198s1.597 3.198 3.57 3.198c1.216 0 2.285-.546 2.93-1.373l1.264 1.133c-.981 1.115-2.485 1.846-4.19 1.846-2.958 0-5.356-2.148-5.356-4.8 0-2.65 2.398-4.8 5.357-4.8 1.48 0 2.817.54 3.789 1.405l1.567-1.404v3.994h-.005Z" fill="#FDFDFD"/></symbol><symbol fill="none" viewBox="0 0 25 25" id="updatefoto" xmlns="http://www.w3.org/2000/svg"><path d="M5.75 6.75H4.5A2.5 2.5 0 0 0 2 9.25V20.5A2.5 2.5 0 0 0 4.5 23h11.25a2.5 2.5 0 0 0 2.5-2.5v-1.25" stroke="#FDFDFD" stroke-width="2.5" stroke-linecap="round" stroke-linejoin="round"/><path d="M17 4.25 20.75 8m1.731-1.769A2.625 2.625 0 0 0 18.77 2.52L8.25 13v3.75H12L22.481 6.231Z" stroke="#FDFDFD" stroke-width="2.5" stroke-linecap="round" stroke-linejoin="round"/></symbol><symbol fill="none" viewBox="0 0 25 25" id="updatefoto" xmlns="http://www.w3.org/2000/svg"><path d="M5.75 6.75H4.5A2.5 2.5 0 0 0 2 9.25V20.5A2.5 2.5 0 0 0 4.5 23h11.25a2.5 2.5 0 0 0 2.5-2.5v-1.25" stroke="#FDFDFD" stroke-width="2.5" stroke-linecap="round" stroke-linejoin="round"/><path d="M17 4.25 20.75 8m1.731-1.769A2.625 2.625 0 0 0 18.77 2.52L8.25 13v3.75H12L22.481 6.231Z" stroke="#FDFDFD" stroke-width="2.5" stroke-linecap="round" stroke-linejoin="round"/></symbol><symbol fill="none" viewBox="0 0 41 41" id="vk" xmlns="http://www.w3.org/2000/svg"><path d="M26.646.5H14.374C3.166.5.5 3.166.5 14.354v12.272C.5 37.832 3.146 40.5 14.354 40.5h12.272c11.206 0 13.874-2.646 13.874-13.854V14.374C40.5 3.166 37.854.5 26.646.5Zm6.146 28.54h-2.918c-1.104 0-1.436-.894-3.416-2.874C24.73 24.5 24 24.292 23.562 24.292c-.604 0-.77.166-.77 1v2.624c0 .71-.23 1.126-2.084 1.126a11.384 11.384 0 0 1-8.896-5.334 23.252 23.252 0 0 1-4.604-9.666c0-.438.166-.834 1-.834h2.916c.75 0 1.02.334 1.314 1.104 1.416 4.168 3.832 7.792 4.812 7.792.376 0 .54-.166.54-1.104v-4.292c-.124-1.958-1.164-2.124-1.164-2.832a.72.72 0 0 1 .748-.668h4.584c.626 0 .834.312.834 1.062v5.792c0 .626.27.834.458.834.376 0 .666-.208 1.354-.896a23.997 23.997 0 0 0 3.584-5.96 1.255 1.255 0 0 1 1.27-.832h2.918c.874 0 1.06.438.874 1.062A36.41 36.41 0 0 1 29.334 21c-.314.48-.44.73 0 1.292.29.438 1.312 1.292 2 2.104 1 .997 1.83 2.151 2.458 3.416.25.812-.168 1.228-1 1.228Z" fill="#D96A10"/></symbol><symbol fill="none" viewBox="0 0 41 41" id="vk" xmlns="http://www.w3.org/2000/svg"><path d="M26.646.5H14.374C3.166.5.5 3.166.5 14.354v12.272C.5 37.832 3.146 40.5 14.354 40.5h12.272c11.206 0 13.874-2.646 13.874-13.854V14.374C40.5 3.166 37.854.5 26.646.5Zm6.146 28.54h-2.918c-1.104 0-1.436-.894-3.416-2.874C24.73 24.5 24 24.292 23.562 24.292c-.604 0-.77.166-.77 1v2.624c0 .71-.23 1.126-2.084 1.126a11.384 11.384 0 0 1-8.896-5.334 23.252 23.252 0 0 1-4.604-9.666c0-.438.166-.834 1-.834h2.916c.75 0 1.02.334 1.314 1.104 1.416 4.168 3.832 7.792 4.812 7.792.376 0 .54-.166.54-1.104v-4.292c-.124-1.958-1.164-2.124-1.164-2.832a.72.72 0 0 1 .748-.668h4.584c.626 0 .834.312.834 1.062v5.792c0 .626.27.834.458.834.376 0 .666-.208 1.354-.896a23.997 23.997 0 0 0 3.584-5.96 1.255 1.255 0 0 1 1.27-.832h2.918c.874 0 1.06.438.874 1.062A36.41 36.41 0 0 1 29.334 21c-.314.48-.44.73 0 1.292.29.438 1.312 1.292 2 2.104 1 .997 1.83 2.151 2.458 3.416.25.812-.168 1.228-1 1.228Z" fill="#D96A10"/></symbol></svg>