<?xml version="1.0" encoding="utf-8"?><svg xmlns="http://www.w3.org/2000/svg" xmlns:xlink="http://www.w3.org/1999/xlink"><symbol fill="none" viewBox="0 0 28 22" id="camera" xmlns="http://www.w3.org/2000/svg"><path d="M14 15.688a3.75 3.75 0 1 0 0-7.5 3.75 3.75 0 0 0 0 7.5Z" fill="#DDD"/><path d="M25.719 4.438h-4.864c-.175 0-.393-.114-.563-.293l-1.599-2.508c-.65-.95-.943-.95-1.998-.95h-5.39c-1.055 0-1.407 0-1.997.95l-1.6 2.508c-.13.141-.313.293-.505.293V3.5a.469.469 0 0 0-.469-.469H4.391a.469.469 0 0 0-.47.469v.938h-1.64A1.406 1.406 0 0 0 .875 5.843v14.062a1.406 1.406 0 0 0 1.406 1.407H25.72a1.406 1.406 0 0 0 1.406-1.407V5.844a1.406 1.406 0 0 0-1.406-1.407ZM14.264 17.556a5.624 5.624 0 1 1-.528-11.237 5.624 5.624 0 0 1 .528 11.237Z" fill="#DDD"/></symbol><symbol fill="none" viewBox="0 0 28 22" id="camera" xmlns="http://www.w3.org/2000/svg"><path d="M14 15.688a3.75 3.75 0 1 0 0-7.5 3.75 3.75 0 0 0 0 7.5Z" fill="#DDD"/><path d="M25.719 4.438h-4.864c-.175 0-.393-.114-.563-.293l-1.599-2.508c-.65-.95-.943-.95-1.998-.95h-5.39c-1.055 0-1.407 0-1.997.95l-1.6 2.508c-.13.141-.313.293-.505.293V3.5a.469.469 0 0 0-.469-.469H4.391a.469.469 0 0 0-.47.469v.938h-1.64A1.406 1.406 0 0 0 .875 5.843v14.062a1.406 1.406 0 0 0 1.406 1.407H25.72a1.406 1.406 0 0 0 1.406-1.407V5.844a1.406 1.406 0 0 0-1.406-1.407ZM14.264 17.556a5.624 5.624 0 1 1-.528-11.237 5.624 5.624 0 0 1 .528 11.237Z" fill="#DDD"/></symbol><symbol fill="none" viewBox="0 0 27 27" id="check" xmlns="http://www.w3.org/2000/svg"><path d="M13.125.375a13.125 13.125 0 1 0 0 26.25 13.125 13.125 0 0 0 0-26.25ZM11.25 18.741l-4.687-4.688 1.49-1.49 3.197 3.196 6.947-6.947 1.496 1.487-8.443 8.442Z" fill="#F24E1E"/></symbol><symbol fill="none" viewBox="0 0 27 27" id="check" xmlns="http://www.w3.org/2000/svg"><path d="M13.125.375a13.125 13.125 0 1 0 0 26.25 13.125 13.125 0 0 0 0-26.25ZM11.25 18.741l-4.687-4.688 1.49-1.49 3.197 3.196 6.947-6.947 1.496 1.487-8.443 8.442Z" fill="#F24E1E"/></symbol><symbol fill="none" viewBox="0 0 38 37" id="close" xmlns="http://www.w3.org/2000/svg"><path d="M18.696.62C8.389.62.196 8.487.196 18.38c0 9.896 8.193 17.76 18.5 17.76s18.5-7.864 18.5-17.76c0-9.894-8.193-17.76-18.5-17.76Zm0 32.983c-8.722 0-15.857-6.85-15.857-15.222 0-8.373 7.135-15.223 15.857-15.223 8.721 0 15.857 6.85 15.857 15.223 0 8.372-7.136 15.222-15.857 15.222Z" fill="#D96A10"/><path d="m25.831 27.26-7.135-6.85-7.136 6.85-2.114-2.03 7.135-6.85-7.135-6.85L11.56 9.5l7.136 6.85L25.83 9.5l2.115 2.03-7.136 6.85 7.136 6.85-2.115 2.03Z" fill="#D96A10"/></symbol><symbol fill="none" viewBox="0 0 38 37" id="close" xmlns="http://www.w3.org/2000/svg"><path d="M18.696.62C8.389.62.196 8.487.196 18.38c0 9.896 8.193 17.76 18.5 17.76s18.5-7.864 18.5-17.76c0-9.894-8.193-17.76-18.5-17.76Zm0 32.983c-8.722 0-15.857-6.85-15.857-15.222 0-8.373 7.135-15.223 15.857-15.223 8.721 0 15.857 6.85 15.857 15.223 0 8.372-7.136 15.222-15.857 15.222Z" fill="#D96A10"/><path d="m25.831 27.26-7.135-6.85-7.136 6.85-2.114-2.03 7.135-6.85-7.135-6.85L11.56 9.5l7.136 6.85L25.83 9.5l2.115 2.03-7.136 6.85 7.136 6.85-2.115 2.03Z" fill="#D96A10"/></symbol><symbol fill="none" viewBox="0 0 37 11" id="context-menu" xmlns="http://www.w3.org/2000/svg"><circle cx="4.5" cy="5.216" r="4.5" fill="#FDFDFD"/><circle cx="18.5" cy="5.216" r="4.5" fill="#FDFDFD"/><circle cx="32.5" cy="5.216" r="4.5" fill="#FDFDFD"/></symbol><symbol fill="none" viewBox="0 0 37 11" id="context-menu" xmlns="http://www.w3.org/2000/svg"><circle cx="4.5" cy="5.216" r="4.5" fill="#FDFDFD"/><circle cx="18.5" cy="5.216" r="4.5" fill="#FDFDFD"/><circle cx="32.5" cy="5.216" r="4.5" fill="#FDFDFD"/></symbol><symbol fill="none" viewBox="0 0 27 27" id="create" xmlns="http://www.w3.org/2000/svg"><path d="M23.625 15.75v5.625a2.25 2.25 0 0 1-2.25 2.25H5.625a2.25 2.25 0 0 1-2.25-2.25V5.625a2.25 2.25 0 0 1 2.25-2.25h5.625v2.25H5.625v15.75h15.75V15.75h2.25Z" fill="#FDFDFD"/><path d="M23.625 7.875h-4.5v-4.5h-2.25v4.5h-4.5v2.25h4.5v4.5h2.25v-4.5h4.5v-2.25Z" fill="#FDFDFD"/></symbol><symbol fill="none" viewBox="0 0 27 27" id="create" xmlns="http://www.w3.org/2000/svg"><path d="M23.625 15.75v5.625a2.25 2.25 0 0 1-2.25 2.25H5.625a2.25 2.25 0 0 1-2.25-2.25V5.625a2.25 2.25 0 0 1 2.25-2.25h5.625v2.25H5.625v15.75h15.75V15.75h2.25Z" fill="#FDFDFD"/><path d="M23.625 7.875h-4.5v-4.5h-2.25v4.5h-4.5v2.25h4.5v4.5h2.25v-4.5h4.5v-2.25Z" fill="#FDFDFD"/></symbol><symbol fill="none" viewBox="0 0 18 19" id="crop" xmlns="http://www.w3.org/2000/svg"><path d="M0 3.625A3.125 3.125 0 0 1 3.125.5h2.75a.625.625 0 0 1 0 1.25h-2.75A1.875 1.875 0 0 0 1.25 3.625v2.75a.625.625 0 0 1-1.25 0v-2.75Zm11.5-2.5c0-.345.28-.625.625-.625h2.75A3.125 3.125 0 0 1 18 3.625v2.75a.625.625 0 1 1-1.25 0v-2.75a1.875 1.875 0 0 0-1.875-1.875h-2.75a.625.625 0 0 1-.625-.625ZM.625 12c.345 0 .625.28.625.625v2.75a1.875 1.875 0 0 0 1.875 1.875h2.75a.625.625 0 1 1 0 1.25h-2.75A3.125 3.125 0 0 1 0 15.375v-2.75C0 12.28.28 12 .625 12Zm16.75 0c.345 0 .625.28.625.625v2.75a3.125 3.125 0 0 1-3.125 3.125h-2.75a.624.624 0 1 1 0-1.25h2.75l.063-.001a1.876 1.876 0 0 0 1.812-1.874v-2.75c0-.345.28-.625.625-.625ZM3.75 16.25v-.125a1.375 1.375 0 0 1 1.375-1.375h7.75a1.375 1.375 0 0 1 1.375 1.375v.125h.625a.872.872 0 0 0 .621-.259 2.625 2.625 0 0 0-2.621-2.491h-7.75a2.625 2.625 0 0 0-2.622 2.491c.159.16.379.259.622.259h.625ZM9 10.75a2.75 2.75 0 1 1 0-5.5 2.75 2.75 0 0 1 0 5.5ZM9 12a4 4 0 1 0 0-8 4 4 0 0 0 0 8Z" fill="#1C1C1C"/></symbol><symbol fill="none" viewBox="0 0 18 19" id="crop" xmlns="http://www.w3.org/2000/svg"><path d="M0 3.625A3.125 3.125 0 0 1 3.125.5h2.75a.625.625 0 0 1 0 1.25h-2.75A1.875 1.875 0 0 0 1.25 3.625v2.75a.625.625 0 0 1-1.25 0v-2.75Zm11.5-2.5c0-.345.28-.625.625-.625h2.75A3.125 3.125 0 0 1 18 3.625v2.75a.625.625 0 1 1-1.25 0v-2.75a1.875 1.875 0 0 0-1.875-1.875h-2.75a.625.625 0 0 1-.625-.625ZM.625 12c.345 0 .625.28.625.625v2.75a1.875 1.875 0 0 0 1.875 1.875h2.75a.625.625 0 1 1 0 1.25h-2.75A3.125 3.125 0 0 1 0 15.375v-2.75C0 12.28.28 12 .625 12Zm16.75 0c.345 0 .625.28.625.625v2.75a3.125 3.125 0 0 1-3.125 3.125h-2.75a.624.624 0 1 1 0-1.25h2.75l.063-.001a1.876 1.876 0 0 0 1.812-1.874v-2.75c0-.345.28-.625.625-.625ZM3.75 16.25v-.125a1.375 1.375 0 0 1 1.375-1.375h7.75a1.375 1.375 0 0 1 1.375 1.375v.125h.625a.872.872 0 0 0 .621-.259 2.625 2.625 0 0 0-2.621-2.491h-7.75a2.625 2.625 0 0 0-2.622 2.491c.159.16.379.259.622.259h.625ZM9 10.75a2.75 2.75 0 1 1 0-5.5 2.75 2.75 0 0 1 0 5.5ZM9 12a4 4 0 1 0 0-8 4 4 0 0 0 0 8Z" fill="#1C1C1C"/></symbol><symbol fill="none" viewBox="0 0 119 107" id="crown" xmlns="http://www.w3.org/2000/svg"><path d="M116.447 30.348c-.887-.916-1.985-1.498-3.153-1.674-1.167-.176-2.353.062-3.406.685L85.2 43.897 64.59 3.405C64.06 2.366 63.31 1.507 62.417.91A5.258 5.258 0 0 0 59.49 0a5.258 5.258 0 0 0-2.927.91c-.894.597-1.642 1.456-2.171 2.495L33.78 43.915 9.103 29.375c-1.05-.617-2.232-.853-3.396-.68-1.163.175-2.258.752-3.145 1.659-.888.906-1.53 2.103-1.844 3.44a8.277 8.277 0 0 0 .075 4.072l18.193 65.922c.183.662.489 1.267.896 1.771.407.503.905.892 1.456 1.138a3.392 3.392 0 0 0 1.729.281 3.53 3.53 0 0 0 1.661-.632c.123-.087 12.696-8.653 34.762-8.653 22.067 0 34.64 8.566 34.753 8.647a3.526 3.526 0 0 0 1.664.64 3.377 3.377 0 0 0 1.734-.277 3.954 3.954 0 0 0 1.46-1.139 4.884 4.884 0 0 0 .899-1.776l18.192-65.905c.374-1.32.408-2.74.097-4.082-.31-1.343-.952-2.545-1.842-3.454ZM93.908 95.85c-5.9-2.96-17.661-7.461-34.418-7.461-16.756 0-28.517 4.5-34.417 7.46L9.688 40.124l22.16 13.067c1.341.782 2.882.942 4.318.448 1.436-.494 2.663-1.606 3.44-3.117L59.49 11.43l19.884 39.078c.777 1.51 2.004 2.62 3.439 3.115 1.435.494 2.974.335 4.315-.446l22.165-13.055L93.908 95.85Z" fill="#0D2468" fill-opacity=".9"/></symbol><symbol fill="none" viewBox="0 0 119 107" id="crown" xmlns="http://www.w3.org/2000/svg"><path d="M116.447 30.348c-.887-.916-1.985-1.498-3.153-1.674-1.167-.176-2.353.062-3.406.685L85.2 43.897 64.59 3.405C64.06 2.366 63.31 1.507 62.417.91A5.258 5.258 0 0 0 59.49 0a5.258 5.258 0 0 0-2.927.91c-.894.597-1.642 1.456-2.171 2.495L33.78 43.915 9.103 29.375c-1.05-.617-2.232-.853-3.396-.68-1.163.175-2.258.752-3.145 1.659-.888.906-1.53 2.103-1.844 3.44a8.277 8.277 0 0 0 .075 4.072l18.193 65.922c.183.662.489 1.267.896 1.771.407.503.905.892 1.456 1.138a3.392 3.392 0 0 0 1.729.281 3.53 3.53 0 0 0 1.661-.632c.123-.087 12.696-8.653 34.762-8.653 22.067 0 34.64 8.566 34.753 8.647a3.526 3.526 0 0 0 1.664.64 3.377 3.377 0 0 0 1.734-.277 3.954 3.954 0 0 0 1.46-1.139 4.884 4.884 0 0 0 .899-1.776l18.192-65.905c.374-1.32.408-2.74.097-4.082-.31-1.343-.952-2.545-1.842-3.454ZM93.908 95.85c-5.9-2.96-17.661-7.461-34.418-7.461-16.756 0-28.517 4.5-34.417 7.46L9.688 40.124l22.16 13.067c1.341.782 2.882.942 4.318.448 1.436-.494 2.663-1.606 3.44-3.117L59.49 11.43l19.884 39.078c.777 1.51 2.004 2.62 3.439 3.115 1.435.494 2.974.335 4.315-.446l22.165-13.055L93.908 95.85Z" fill="#0D2468" fill-opacity=".9"/></symbol><symbol fill="none" viewBox="0 0 29 26" id="crown-boss" xmlns="http://www.w3.org/2000/svg"><path d="M28.348 7.2a1.764 1.764 0 0 0-.996-.52 1.65 1.65 0 0 0-1.078.214L20.79 10.06l-4.677-9.004a2.045 2.045 0 0 0-.687-.774A1.688 1.688 0 0 0 14.5 0c-.324 0-.643.097-.926.282-.283.185-.52.452-.687.774L8.209 10.06 2.724 6.895a1.66 1.66 0 0 0-1.075-.213 1.772 1.772 0 0 0-.997.514 2.247 2.247 0 0 0-.584 1.067c-.099.415-.09.854.026 1.263l4.326 15.35c.066.231.175.442.32.618.145.176.322.312.519.398a1.228 1.228 0 0 0 1.209-.121c.028-.02 2.93-1.938 8.03-1.938 5.098 0 8 1.922 8.023 1.937.18.125.383.201.593.223.21.022.422-.01.62-.096.196-.086.375-.222.52-.398.146-.176.256-.389.321-.62l4.326-15.342c.12-.409.131-.85.032-1.266a2.234 2.234 0 0 0-.585-1.071Zm-5.955 14.943c-1.56-.693-4.248-1.56-7.896-1.56-3.648 0-6.335.87-7.896 1.563l-3.157-11.2 4.271 2.46c.425.243.913.293 1.367.14.455-.154.843-.499 1.089-.967l4.326-8.327 4.326 8.328c.246.468.635.813 1.09.966.454.153.942.103 1.366-.14l4.27-2.465-3.156 11.202Zm-2.3-4.198a1.706 1.706 0 0 1-.473.986 1.296 1.296 0 0 1-.913.391 1.31 1.31 0 0 1-.217-.019 23.193 23.193 0 0 0-7.99 0 1.26 1.26 0 0 1-1.044-.295c-.3-.255-.5-.637-.557-1.063-.057-.426.035-.86.255-1.208s.55-.58.918-.646a25.63 25.63 0 0 1 8.846 0c.183.032.358.106.515.217.158.11.296.256.405.428.109.172.188.368.231.575.044.208.052.423.024.634Z" fill="#FAFF00"/></symbol><symbol fill="none" viewBox="0 0 29 26" id="crown-boss" xmlns="http://www.w3.org/2000/svg"><path d="M28.348 7.2a1.764 1.764 0 0 0-.996-.52 1.65 1.65 0 0 0-1.078.214L20.79 10.06l-4.677-9.004a2.045 2.045 0 0 0-.687-.774A1.688 1.688 0 0 0 14.5 0c-.324 0-.643.097-.926.282-.283.185-.52.452-.687.774L8.209 10.06 2.724 6.895a1.66 1.66 0 0 0-1.075-.213 1.772 1.772 0 0 0-.997.514 2.247 2.247 0 0 0-.584 1.067c-.099.415-.09.854.026 1.263l4.326 15.35c.066.231.175.442.32.618.145.176.322.312.519.398a1.228 1.228 0 0 0 1.209-.121c.028-.02 2.93-1.938 8.03-1.938 5.098 0 8 1.922 8.023 1.937.18.125.383.201.593.223.21.022.422-.01.62-.096.196-.086.375-.222.52-.398.146-.176.256-.389.321-.62l4.326-15.342c.12-.409.131-.85.032-1.266a2.234 2.234 0 0 0-.585-1.071Zm-5.955 14.943c-1.56-.693-4.248-1.56-7.896-1.56-3.648 0-6.335.87-7.896 1.563l-3.157-11.2 4.271 2.46c.425.243.913.293 1.367.14.455-.154.843-.499 1.089-.967l4.326-8.327 4.326 8.328c.246.468.635.813 1.09.966.454.153.942.103 1.366-.14l4.27-2.465-3.156 11.202Zm-2.3-4.198a1.706 1.706 0 0 1-.473.986 1.296 1.296 0 0 1-.913.391 1.31 1.31 0 0 1-.217-.019 23.193 23.193 0 0 0-7.99 0 1.26 1.26 0 0 1-1.044-.295c-.3-.255-.5-.637-.557-1.063-.057-.426.035-.86.255-1.208s.55-.58.918-.646a25.63 25.63 0 0 1 8.846 0c.183.032.358.106.515.217.158.11.296.256.405.428.109.172.188.368.231.575.044.208.052.423.024.634Z" fill="#FAFF00"/></symbol><symbol fill="none" viewBox="0 0 25 26" id="deadline" xmlns="http://www.w3.org/2000/svg"><path fill-rule="evenodd" clip-rule="evenodd" d="M4.167 10.916a1.389 1.389 0 0 0-1.389 1.39v1.388a1.39 1.39 0 0 0 1.39 1.39h1.388a1.39 1.39 0 0 0 1.389-1.39v-1.389a1.389 1.389 0 0 0-1.389-1.389H4.167Zm0 1.39v1.388h1.39v-1.389h-1.39Zm4.167 0a1.389 1.389 0 0 1 1.389-1.39h1.389a1.389 1.389 0 0 1 1.389 1.39v1.388a1.39 1.39 0 0 1-1.39 1.39H9.724a1.39 1.39 0 0 1-1.39-1.39v-1.389Zm1.389 0h1.389v1.388h-1.39v-1.389Zm5.555-1.39a1.389 1.389 0 0 0-1.388 1.39v1.388a1.389 1.389 0 0 0 1.388 1.39h1.39a1.39 1.39 0 0 0 1.388-1.39v-1.389a1.389 1.389 0 0 0-1.389-1.389h-1.389Zm0 1.39v1.388h1.39v-1.389h-1.39Zm-12.5 5.555a1.389 1.389 0 0 1 1.39-1.389h1.388a1.389 1.389 0 0 1 1.389 1.389v1.389a1.389 1.389 0 0 1-1.389 1.389H4.167a1.389 1.389 0 0 1-1.389-1.39v-1.388Zm2.778 0v1.389H4.167v-1.39h1.39Zm4.167-1.389a1.389 1.389 0 0 0-1.39 1.389v1.389a1.389 1.389 0 0 0 1.39 1.389h1.389a1.389 1.389 0 0 0 1.389-1.39v-1.388a1.389 1.389 0 0 0-1.39-1.389H9.724Zm1.389 1.389h-1.39v1.389h1.39v-1.39Z" fill="#D96A10"/><path d="M20.834 18.902a.694.694 0 1 0-1.389 0v2.024l.898.898a.694.694 0 0 0 .982-.982l-.49-.49v-1.45Z" fill="#D96A10"/><path fill-rule="evenodd" clip-rule="evenodd" d="M4.167 1.194a.694.694 0 0 1 1.389 0v3.473a.694.694 0 1 0 1.389 0V2.583h6.944V1.194a.694.694 0 1 1 1.389 0v3.473a.694.694 0 1 0 1.389 0V2.583h2.083a2.083 2.083 0 0 1 2.084 2.084v11.16a4.862 4.862 0 1 1-4.684 7.59H2.082A2.083 2.083 0 0 1 0 21.333V4.667a2.083 2.083 0 0 1 2.083-2.084h2.084V1.194ZM15.278 20.64a4.862 4.862 0 0 1 4.167-4.813V8.833H1.389v12.5a.695.695 0 0 0 .694.695H15.48a4.86 4.86 0 0 1-.201-1.39Zm8.333 0a3.472 3.472 0 1 1-6.943 0 3.472 3.472 0 0 1 6.943 0Z" fill="#D96A10"/></symbol><symbol fill="none" viewBox="0 0 25 26" id="deadline" xmlns="http://www.w3.org/2000/svg"><path fill-rule="evenodd" clip-rule="evenodd" d="M4.167 10.916a1.389 1.389 0 0 0-1.389 1.39v1.388a1.39 1.39 0 0 0 1.39 1.39h1.388a1.39 1.39 0 0 0 1.389-1.39v-1.389a1.389 1.389 0 0 0-1.389-1.389H4.167Zm0 1.39v1.388h1.39v-1.389h-1.39Zm4.167 0a1.389 1.389 0 0 1 1.389-1.39h1.389a1.389 1.389 0 0 1 1.389 1.39v1.388a1.39 1.39 0 0 1-1.39 1.39H9.724a1.39 1.39 0 0 1-1.39-1.39v-1.389Zm1.389 0h1.389v1.388h-1.39v-1.389Zm5.555-1.39a1.389 1.389 0 0 0-1.388 1.39v1.388a1.389 1.389 0 0 0 1.388 1.39h1.39a1.39 1.39 0 0 0 1.388-1.39v-1.389a1.389 1.389 0 0 0-1.389-1.389h-1.389Zm0 1.39v1.388h1.39v-1.389h-1.39Zm-12.5 5.555a1.389 1.389 0 0 1 1.39-1.389h1.388a1.389 1.389 0 0 1 1.389 1.389v1.389a1.389 1.389 0 0 1-1.389 1.389H4.167a1.389 1.389 0 0 1-1.389-1.39v-1.388Zm2.778 0v1.389H4.167v-1.39h1.39Zm4.167-1.389a1.389 1.389 0 0 0-1.39 1.389v1.389a1.389 1.389 0 0 0 1.39 1.389h1.389a1.389 1.389 0 0 0 1.389-1.39v-1.388a1.389 1.389 0 0 0-1.39-1.389H9.724Zm1.389 1.389h-1.39v1.389h1.39v-1.39Z" fill="#D96A10"/><path d="M20.834 18.902a.694.694 0 1 0-1.389 0v2.024l.898.898a.694.694 0 0 0 .982-.982l-.49-.49v-1.45Z" fill="#D96A10"/><path fill-rule="evenodd" clip-rule="evenodd" d="M4.167 1.194a.694.694 0 0 1 1.389 0v3.473a.694.694 0 1 0 1.389 0V2.583h6.944V1.194a.694.694 0 1 1 1.389 0v3.473a.694.694 0 1 0 1.389 0V2.583h2.083a2.083 2.083 0 0 1 2.084 2.084v11.16a4.862 4.862 0 1 1-4.684 7.59H2.082A2.083 2.083 0 0 1 0 21.333V4.667a2.083 2.083 0 0 1 2.083-2.084h2.084V1.194ZM15.278 20.64a4.862 4.862 0 0 1 4.167-4.813V8.833H1.389v12.5a.695.695 0 0 0 .694.695H15.48a4.86 4.86 0 0 1-.201-1.39Zm8.333 0a3.472 3.472 0 1 1-6.943 0 3.472 3.472 0 0 1 6.943 0Z" fill="#D96A10"/></symbol><symbol fill="none" viewBox="0 0 13 16" id="delete" xmlns="http://www.w3.org/2000/svg"><path d="M2.438 15.5c-.447 0-.83-.163-1.149-.49a1.623 1.623 0 0 1-.476-1.177V3H0V1.333h4.063V.5h4.875v.833H13V3h-.813v10.833c0 .459-.159.851-.477 1.178-.319.327-.701.49-1.148.489H2.438ZM10.562 3H2.438v10.833h8.124V3Zm-6.5 9.167h1.625v-7.5H4.063v7.5Zm3.25 0h1.625v-7.5H7.313v7.5Z" fill="#FDFDFD"/></symbol><symbol fill="none" viewBox="0 0 13 16" id="delete" xmlns="http://www.w3.org/2000/svg"><path d="M2.438 15.5c-.447 0-.83-.163-1.149-.49a1.623 1.623 0 0 1-.476-1.177V3H0V1.333h4.063V.5h4.875v.833H13V3h-.813v10.833c0 .459-.159.851-.477 1.178-.319.327-.701.49-1.148.489H2.438ZM10.562 3H2.438v10.833h8.124V3Zm-6.5 9.167h1.625v-7.5H4.063v7.5Zm3.25 0h1.625v-7.5H7.313v7.5Z" fill="#FDFDFD"/></symbol><symbol fill="none" viewBox="0 0 18 19" id="delete-black" xmlns="http://www.w3.org/2000/svg"><path d="M3.362 18.5c-.574 0-1.064-.18-1.47-.539-.404-.359-.606-.794-.606-1.304V2.52H0V1.38h5.143V.5h7.714v.879H18V2.52h-1.286v14.137c0 .525-.198.963-.594 1.314-.397.353-.89.529-1.482.529H3.362ZM15.43 2.52H2.57v14.137c0 .204.075.372.223.504a.824.824 0 0 0 .568.198h11.276a.805.805 0 0 0 .544-.22c.164-.146.247-.307.247-.482V2.52ZM6.182 15.076h1.285V4.803H6.182v10.273Zm4.35 0h1.286V4.803h-1.285v10.273Z" fill="#000"/></symbol><symbol fill="none" viewBox="0 0 18 19" id="delete-black" xmlns="http://www.w3.org/2000/svg"><path d="M3.362 18.5c-.574 0-1.064-.18-1.47-.539-.404-.359-.606-.794-.606-1.304V2.52H0V1.38h5.143V.5h7.714v.879H18V2.52h-1.286v14.137c0 .525-.198.963-.594 1.314-.397.353-.89.529-1.482.529H3.362ZM15.43 2.52H2.57v14.137c0 .204.075.372.223.504a.824.824 0 0 0 .568.198h11.276a.805.805 0 0 0 .544-.22c.164-.146.247-.307.247-.482V2.52ZM6.182 15.076h1.285V4.803H6.182v10.273Zm4.35 0h1.286V4.803h-1.285v10.273Z" fill="#000"/></symbol><symbol fill="none" viewBox="0 0 13 16" id="delete-orange" xmlns="http://www.w3.org/2000/svg"><path d="M2.438 15.5c-.447 0-.83-.163-1.149-.49a1.623 1.623 0 0 1-.476-1.177V3H0V1.333h4.063V.5h4.875v.833H13V3h-.813v10.833c0 .459-.159.851-.477 1.178-.319.327-.701.49-1.148.489H2.438ZM10.562 3H2.438v10.833h8.124V3Zm-6.5 9.167h1.625v-7.5H4.063v7.5Zm3.25 0h1.625v-7.5H7.313v7.5Z" fill="#D96A10"/></symbol><symbol fill="none" viewBox="0 0 13 16" id="delete-orange" xmlns="http://www.w3.org/2000/svg"><path d="M2.438 15.5c-.447 0-.83-.163-1.149-.49a1.623 1.623 0 0 1-.476-1.177V3H0V1.333h4.063V.5h4.875v.833H13V3h-.813v10.833c0 .459-.159.851-.477 1.178-.319.327-.701.49-1.148.489H2.438ZM10.562 3H2.438v10.833h8.124V3Zm-6.5 9.167h1.625v-7.5H4.063v7.5Zm3.25 0h1.625v-7.5H7.313v7.5Z" fill="#D96A10"/></symbol><symbol fill="none" viewBox="0 0 22 28" id="description" xmlns="http://www.w3.org/2000/svg"><path d="M5.5 22.4h11v-2.8h-11v2.8Zm0-5.6h11V14h-11v2.8ZM2.75 28c-.756 0-1.404-.274-1.943-.823A2.715 2.715 0 0 1 0 25.2V2.8C0 2.03.27 1.37.809.822 1.347.273 1.995-.001 2.75 0h11L22 8.4v16.8c0 .77-.27 1.43-.808 1.978-.54.549-1.187.823-1.942.822H2.75Zm9.625-18.2v-7H2.75v22.4h16.5V9.8h-6.875Z" fill="#D96A10"/></symbol><symbol fill="none" viewBox="0 0 22 28" id="description" xmlns="http://www.w3.org/2000/svg"><path d="M5.5 22.4h11v-2.8h-11v2.8Zm0-5.6h11V14h-11v2.8ZM2.75 28c-.756 0-1.404-.274-1.943-.823A2.715 2.715 0 0 1 0 25.2V2.8C0 2.03.27 1.37.809.822 1.347.273 1.995-.001 2.75 0h11L22 8.4v16.8c0 .77-.27 1.43-.808 1.978-.54.549-1.187.823-1.942.822H2.75Zm9.625-18.2v-7H2.75v22.4h16.5V9.8h-6.875Z" fill="#D96A10"/></symbol><symbol fill="none" viewBox="0 0 52 55" id="edit" xmlns="http://www.w3.org/2000/svg"><path d="M49.386 27.508c-.69 0-1.35.29-1.838.805a2.832 2.832 0 0 0-.762 1.944v16.495c0 .73-.273 1.429-.76 1.944a2.53 2.53 0 0 1-1.839.806H7.797c-.689 0-1.35-.29-1.837-.806a2.832 2.832 0 0 1-.762-1.944V8.264c0-.73.274-1.429.762-1.944a2.53 2.53 0 0 1 1.838-.806h15.595c.69 0 1.35-.29 1.838-.805a2.832 2.832 0 0 0 .761-1.944c0-.729-.273-1.428-.76-1.944a2.53 2.53 0 0 0-1.839-.805H7.798c-2.068 0-4.052.869-5.514 2.416C.822 3.978 0 6.076 0 8.264v38.488c0 2.188.822 4.286 2.284 5.832C3.746 54.131 5.73 55 7.798 55h36.39c2.067 0 4.05-.869 5.513-2.416 1.462-1.546 2.284-3.644 2.284-5.832V30.257c0-.729-.274-1.428-.761-1.944a2.53 2.53 0 0 0-1.838-.805Zm-38.989 2.09v11.656c0 .73.274 1.428.761 1.944a2.53 2.53 0 0 0 1.838.805h11.021c.342.002.681-.067.998-.204.317-.137.605-.338.848-.593l17.986-19.052 7.382-7.643c.244-.255.437-.56.57-.894a2.886 2.886 0 0 0 0-2.115 2.763 2.763 0 0 0-.57-.895L40.211.813a2.596 2.596 0 0 0-.846-.602 2.477 2.477 0 0 0-2 0c-.317.14-.604.345-.846.602l-7.33 7.78-18.038 19.052c-.241.257-.432.562-.561.897a2.89 2.89 0 0 0-.193 1.055ZM38.365 6.641l7.356 7.78-3.691 3.904-7.356-7.78 3.69-3.904Zm-22.77 24.082L31.01 14.422l7.356 7.78L22.95 38.505h-7.356v-7.78Z" fill="#0D2468" fill-opacity=".9"/></symbol><symbol fill="none" viewBox="0 0 52 55" id="edit" xmlns="http://www.w3.org/2000/svg"><path d="M49.386 27.508c-.69 0-1.35.29-1.838.805a2.832 2.832 0 0 0-.762 1.944v16.495c0 .73-.273 1.429-.76 1.944a2.53 2.53 0 0 1-1.839.806H7.797c-.689 0-1.35-.29-1.837-.806a2.832 2.832 0 0 1-.762-1.944V8.264c0-.73.274-1.429.762-1.944a2.53 2.53 0 0 1 1.838-.806h15.595c.69 0 1.35-.29 1.838-.805a2.832 2.832 0 0 0 .761-1.944c0-.729-.273-1.428-.76-1.944a2.53 2.53 0 0 0-1.839-.805H7.798c-2.068 0-4.052.869-5.514 2.416C.822 3.978 0 6.076 0 8.264v38.488c0 2.188.822 4.286 2.284 5.832C3.746 54.131 5.73 55 7.798 55h36.39c2.067 0 4.05-.869 5.513-2.416 1.462-1.546 2.284-3.644 2.284-5.832V30.257c0-.729-.274-1.428-.761-1.944a2.53 2.53 0 0 0-1.838-.805Zm-38.989 2.09v11.656c0 .73.274 1.428.761 1.944a2.53 2.53 0 0 0 1.838.805h11.021c.342.002.681-.067.998-.204.317-.137.605-.338.848-.593l17.986-19.052 7.382-7.643c.244-.255.437-.56.57-.894a2.886 2.886 0 0 0 0-2.115 2.763 2.763 0 0 0-.57-.895L40.211.813a2.596 2.596 0 0 0-.846-.602 2.477 2.477 0 0 0-2 0c-.317.14-.604.345-.846.602l-7.33 7.78-18.038 19.052c-.241.257-.432.562-.561.897a2.89 2.89 0 0 0-.193 1.055ZM38.365 6.641l7.356 7.78-3.691 3.904-7.356-7.78 3.69-3.904Zm-22.77 24.082L31.01 14.422l7.356 7.78L22.95 38.505h-7.356v-7.78Z" fill="#0D2468" fill-opacity=".9"/></symbol><symbol fill="none" viewBox="0 0 52 55" id="edit-orange" xmlns="http://www.w3.org/2000/svg"><path d="M49.386 27.508c-.69 0-1.35.29-1.838.805a2.832 2.832 0 0 0-.762 1.944v16.495c0 .73-.273 1.429-.76 1.944a2.53 2.53 0 0 1-1.839.806H7.797c-.689 0-1.35-.29-1.837-.806a2.832 2.832 0 0 1-.762-1.944V8.264c0-.73.274-1.429.762-1.944a2.53 2.53 0 0 1 1.838-.806h15.595c.69 0 1.35-.29 1.838-.805a2.832 2.832 0 0 0 .761-1.944c0-.729-.273-1.428-.76-1.944a2.53 2.53 0 0 0-1.839-.805H7.798c-2.068 0-4.052.869-5.514 2.416C.822 3.978 0 6.076 0 8.264v38.488c0 2.188.822 4.286 2.284 5.832C3.746 54.131 5.73 55 7.798 55h36.39c2.067 0 4.05-.869 5.513-2.416 1.462-1.546 2.284-3.644 2.284-5.832V30.257c0-.729-.274-1.428-.761-1.944a2.53 2.53 0 0 0-1.838-.805Zm-38.989 2.09v11.656c0 .73.274 1.428.761 1.944a2.53 2.53 0 0 0 1.838.805h11.021c.342.002.681-.067.998-.204.317-.137.605-.338.848-.593l17.986-19.052 7.382-7.643c.244-.255.437-.56.57-.894a2.886 2.886 0 0 0 0-2.115 2.763 2.763 0 0 0-.57-.895L40.211.813a2.596 2.596 0 0 0-.846-.602 2.477 2.477 0 0 0-2 0c-.317.14-.604.345-.846.602l-7.33 7.78-18.038 19.052c-.241.257-.432.562-.561.897a2.89 2.89 0 0 0-.193 1.055ZM38.365 6.641l7.356 7.78-3.691 3.904-7.356-7.78 3.69-3.904Zm-22.77 24.082L31.01 14.422l7.356 7.78L22.95 38.505h-7.356v-7.78Z" fill="#D96A10" fill-opacity=".9"/></symbol><symbol fill="none" viewBox="0 0 52 55" id="edit-orange" xmlns="http://www.w3.org/2000/svg"><path d="M49.386 27.508c-.69 0-1.35.29-1.838.805a2.832 2.832 0 0 0-.762 1.944v16.495c0 .73-.273 1.429-.76 1.944a2.53 2.53 0 0 1-1.839.806H7.797c-.689 0-1.35-.29-1.837-.806a2.832 2.832 0 0 1-.762-1.944V8.264c0-.73.274-1.429.762-1.944a2.53 2.53 0 0 1 1.838-.806h15.595c.69 0 1.35-.29 1.838-.805a2.832 2.832 0 0 0 .761-1.944c0-.729-.273-1.428-.76-1.944a2.53 2.53 0 0 0-1.839-.805H7.798c-2.068 0-4.052.869-5.514 2.416C.822 3.978 0 6.076 0 8.264v38.488c0 2.188.822 4.286 2.284 5.832C3.746 54.131 5.73 55 7.798 55h36.39c2.067 0 4.05-.869 5.513-2.416 1.462-1.546 2.284-3.644 2.284-5.832V30.257c0-.729-.274-1.428-.761-1.944a2.53 2.53 0 0 0-1.838-.805Zm-38.989 2.09v11.656c0 .73.274 1.428.761 1.944a2.53 2.53 0 0 0 1.838.805h11.021c.342.002.681-.067.998-.204.317-.137.605-.338.848-.593l17.986-19.052 7.382-7.643c.244-.255.437-.56.57-.894a2.886 2.886 0 0 0 0-2.115 2.763 2.763 0 0 0-.57-.895L40.211.813a2.596 2.596 0 0 0-.846-.602 2.477 2.477 0 0 0-2 0c-.317.14-.604.345-.846.602l-7.33 7.78-18.038 19.052c-.241.257-.432.562-.561.897a2.89 2.89 0 0 0-.193 1.055ZM38.365 6.641l7.356 7.78-3.691 3.904-7.356-7.78 3.69-3.904Zm-22.77 24.082L31.01 14.422l7.356 7.78L22.95 38.505h-7.356v-7.78Z" fill="#D96A10" fill-opacity=".9"/></symbol><symbol fill="none" viewBox="0 0 29 68" id="left-arrow" xmlns="http://www.w3.org/2000/svg"><path d="M27.543 2.977a4.818 4.818 0 0 1-.1 4.985L12.645 31.356a5 5 0 0 0-.026 5.304l14.862 24.018a4.665 4.665 0 0 1 0 4.91c-1.824 2.948-6.111 2.948-7.935 0L1.628 36.631a5 5 0 0 1 0-5.262L19.274 2.852c1.917-3.099 6.447-3.03 8.269.125Z" fill="#0D2468" fill-opacity=".9"/></symbol><symbol fill="none" viewBox="0 0 29 68" id="left-arrow" xmlns="http://www.w3.org/2000/svg"><path d="M27.543 2.977a4.818 4.818 0 0 1-.1 4.985L12.645 31.356a5 5 0 0 0-.026 5.304l14.862 24.018a4.665 4.665 0 0 1 0 4.91c-1.824 2.948-6.111 2.948-7.935 0L1.628 36.631a5 5 0 0 1 0-5.262L19.274 2.852c1.917-3.099 6.447-3.03 8.269.125Z" fill="#0D2468" fill-opacity=".9"/></symbol><symbol fill="none" viewBox="0 0 19 23" id="lock" xmlns="http://www.w3.org/2000/svg"><path d="M2.375 23a2.388 2.388 0 0 1-1.678-.644C.232 21.926 0 21.411 0 20.809V9.857C0 9.255.233 8.74.698 8.31a2.382 2.382 0 0 1 1.677-.643h1.188v-2.19c0-1.516.579-2.808 1.737-3.876C6.458.533 7.858 0 9.5 0c1.643 0 3.043.534 4.201 1.602 1.159 1.069 1.737 2.36 1.736 3.874v2.19h1.188c.653 0 1.212.215 1.678.645.465.429.698.944.697 1.546V20.81c0 .602-.233 1.118-.698 1.547a2.383 2.383 0 0 1-1.677.643H2.375ZM9.5 17.524c.653 0 1.212-.215 1.678-.644.465-.43.698-.945.697-1.547 0-.602-.233-1.118-.698-1.547a2.382 2.382 0 0 0-1.677-.643c-.653 0-1.212.214-1.678.644-.465.43-.698.945-.697 1.546 0 .603.233 1.119.698 1.548.466.43 1.025.643 1.677.643ZM5.937 7.667h7.125v-2.19c0-.914-.346-1.69-1.039-2.328-.692-.64-1.533-.959-2.523-.959-.99 0-1.83.32-2.523.959-.693.639-1.04 1.414-1.04 2.327v2.19Z" fill="#000" fill-opacity=".4"/></symbol><symbol fill="none" viewBox="0 0 19 23" id="lock" xmlns="http://www.w3.org/2000/svg"><path d="M2.375 23a2.388 2.388 0 0 1-1.678-.644C.232 21.926 0 21.411 0 20.809V9.857C0 9.255.233 8.74.698 8.31a2.382 2.382 0 0 1 1.677-.643h1.188v-2.19c0-1.516.579-2.808 1.737-3.876C6.458.533 7.858 0 9.5 0c1.643 0 3.043.534 4.201 1.602 1.159 1.069 1.737 2.36 1.736 3.874v2.19h1.188c.653 0 1.212.215 1.678.645.465.429.698.944.697 1.546V20.81c0 .602-.233 1.118-.698 1.547a2.383 2.383 0 0 1-1.677.643H2.375ZM9.5 17.524c.653 0 1.212-.215 1.678-.644.465-.43.698-.945.697-1.547 0-.602-.233-1.118-.698-1.547a2.382 2.382 0 0 0-1.677-.643c-.653 0-1.212.214-1.678.644-.465.43-.698.945-.697 1.546 0 .603.233 1.119.698 1.548.466.43 1.025.643 1.677.643ZM5.937 7.667h7.125v-2.19c0-.914-.346-1.69-1.039-2.328-.692-.64-1.533-.959-2.523-.959-.99 0-1.83.32-2.523.959-.693.639-1.04 1.414-1.04 2.327v2.19Z" fill="#000" fill-opacity=".4"/></symbol><symbol fill="none" viewBox="0 0 52 41" id="message" xmlns="http://www.w3.org/2000/svg"><path d="M45.615.5H6.385C3.05.5.5 3.389.5 7.167v26.666c0 3.778 2.55 6.667 5.885 6.667h39.23c3.335 0 5.885-2.889 5.885-6.667V7.167C51.5 3.389 48.95.5 45.615.5Zm1.57 34.222-15.3-12.444L26 26.722l-6.08-4.444L4.814 34.722l12.358-14.444L2.07 6.944 26 21.611 49.735 7.167 34.827 20.5l12.358 14.222Z" fill="#D96A10"/></symbol><symbol fill="none" viewBox="0 0 52 41" id="message" xmlns="http://www.w3.org/2000/svg"><path d="M45.615.5H6.385C3.05.5.5 3.389.5 7.167v26.666c0 3.778 2.55 6.667 5.885 6.667h39.23c3.335 0 5.885-2.889 5.885-6.667V7.167C51.5 3.389 48.95.5 45.615.5Zm1.57 34.222-15.3-12.444L26 26.722l-6.08-4.444L4.814 34.722l12.358-14.444L2.07 6.944 26 21.611 49.735 7.167 34.827 20.5l12.358 14.222Z" fill="#D96A10"/></symbol><symbol fill="none" viewBox="0 0 20 19" id="open-file" xmlns="http://www.w3.org/2000/svg"><path d="M8 2H4c-.53 0-1.04.198-1.414.55A1.818 1.818 0 0 0 2 3.874v11.25c0 .497.21.974.586 1.326C2.96 16.802 3.47 17 4 17h12c.53 0 1.04-.198 1.414-.55.375-.35.586-.828.586-1.325v-3.75M10 9.5 18 2m0 0v4.688M18 2h-5" stroke="#FDFDFD" stroke-width="2.5" stroke-linecap="round" stroke-linejoin="round"/></symbol><symbol fill="none" viewBox="0 0 20 19" id="open-file" xmlns="http://www.w3.org/2000/svg"><path d="M8 2H4c-.53 0-1.04.198-1.414.55A1.818 1.818 0 0 0 2 3.874v11.25c0 .497.21.974.586 1.326C2.96 16.802 3.47 17 4 17h12c.53 0 1.04-.198 1.414-.55.375-.35.586-.828.586-1.325v-3.75M10 9.5 18 2m0 0v4.688M18 2h-5" stroke="#FDFDFD" stroke-width="2.5" stroke-linecap="round" stroke-linejoin="round"/></symbol><symbol fill="none" viewBox="0 0 19 21" id="person" xmlns="http://www.w3.org/2000/svg"><path d="M13 1.527C12.111.542 10.87 0 9.5 0 8.123 0 6.877.54 5.992 1.518c-.894.99-1.33 2.334-1.227 3.786C4.968 8.17 7.092 10.5 9.5 10.5c2.408 0 4.529-2.33 4.735-5.195.104-1.439-.335-2.78-1.235-3.778ZM17.538 21H1.462a1.386 1.386 0 0 1-.61-.133 1.421 1.421 0 0 1-.495-.389c-.297-.364-.417-.861-.328-1.364.385-2.195 1.588-4.039 3.479-5.333C5.188 12.632 7.316 12 9.5 12s4.312.633 5.992 1.781c1.891 1.294 3.094 3.138 3.48 5.332.088.503-.032 1-.329 1.365a1.421 1.421 0 0 1-.495.389c-.19.09-.4.136-.61.133Z" fill="#000" fill-opacity=".4"/></symbol><symbol fill="none" viewBox="0 0 19 21" id="person" xmlns="http://www.w3.org/2000/svg"><path d="M13 1.527C12.111.542 10.87 0 9.5 0 8.123 0 6.877.54 5.992 1.518c-.894.99-1.33 2.334-1.227 3.786C4.968 8.17 7.092 10.5 9.5 10.5c2.408 0 4.529-2.33 4.735-5.195.104-1.439-.335-2.78-1.235-3.778ZM17.538 21H1.462a1.386 1.386 0 0 1-.61-.133 1.421 1.421 0 0 1-.495-.389c-.297-.364-.417-.861-.328-1.364.385-2.195 1.588-4.039 3.479-5.333C5.188 12.632 7.316 12 9.5 12s4.312.633 5.992 1.781c1.891 1.294 3.094 3.138 3.48 5.332.088.503-.032 1-.329 1.365a1.421 1.421 0 0 1-.495.389c-.19.09-.4.136-.61.133Z" fill="#000" fill-opacity=".4"/></symbol><symbol fill="none" viewBox="0 0 48 41" id="phone" xmlns="http://www.w3.org/2000/svg"><path d="m42.895 27.777-6.646-.646a6.066 6.066 0 0 0-2.316.216c-.743.22-1.419.58-1.974 1.054l-4.815 4.097c-7.427-3.215-13.464-8.353-17.242-14.674l4.84-4.12c1.126-.957 1.675-2.293 1.492-3.651l-.759-5.612c-.148-1.086-.76-2.088-1.72-2.815C12.794.9 11.553.5 10.268.5H5.742C2.786.5.326 2.593.51 5.11c1.386 19.015 19.256 34.202 41.574 35.382 2.956.156 5.416-1.937 5.416-4.454v-3.852c.026-2.249-1.962-4.142-4.605-4.409Z" fill="#D96A10"/></symbol><symbol fill="none" viewBox="0 0 48 41" id="phone" xmlns="http://www.w3.org/2000/svg"><path d="m42.895 27.777-6.646-.646a6.066 6.066 0 0 0-2.316.216c-.743.22-1.419.58-1.974 1.054l-4.815 4.097c-7.427-3.215-13.464-8.353-17.242-14.674l4.84-4.12c1.126-.957 1.675-2.293 1.492-3.651l-.759-5.612c-.148-1.086-.76-2.088-1.72-2.815C12.794.9 11.553.5 10.268.5H5.742C2.786.5.326 2.593.51 5.11c1.386 19.015 19.256 34.202 41.574 35.382 2.956.156 5.416-1.937 5.416-4.454v-3.852c.026-2.249-1.962-4.142-4.605-4.409Z" fill="#D96A10"/></symbol><symbol fill="none" viewBox="0 0 61 61" id="reload" xmlns="http://www.w3.org/2000/svg"><path d="M57.588 30.294C57.588 15.225 45.362 3 30.294 3 15.225 3 3 15.225 3 30.294c0 15.068 12.225 27.294 27.294 27.294 15.068 0 27.294-12.226 27.294-27.294Z" stroke="#0D2468" stroke-opacity=".9" stroke-width="6" stroke-miterlimit="10"/><path d="m42.455 22.028-1.617-1.88a14.695 14.695 0 1 0 3.228 15.045" stroke="#0D2468" stroke-opacity=".9" stroke-width="6" stroke-miterlimit="10" stroke-linecap="round"/><path d="M46.119 16.932a1.2 1.2 0 0 0-.853.36l-8.464 8.465a1.223 1.223 0 0 0 .866 2.09h8.464a1.225 1.225 0 0 0 1.225-1.225v-8.466a1.223 1.223 0 0 0-1.234-1.227l-.004.003Z" fill="#0D2468" fill-opacity=".9"/></symbol><symbol fill="none" viewBox="0 0 61 61" id="reload" xmlns="http://www.w3.org/2000/svg"><path d="M57.588 30.294C57.588 15.225 45.362 3 30.294 3 15.225 3 3 15.225 3 30.294c0 15.068 12.225 27.294 27.294 27.294 15.068 0 27.294-12.226 27.294-27.294Z" stroke="#0D2468" stroke-opacity=".9" stroke-width="6" stroke-miterlimit="10"/><path d="m42.455 22.028-1.617-1.88a14.695 14.695 0 1 0 3.228 15.045" stroke="#0D2468" stroke-opacity=".9" stroke-width="6" stroke-miterlimit="10" stroke-linecap="round"/><path d="M46.119 16.932a1.2 1.2 0 0 0-.853.36l-8.464 8.465a1.223 1.223 0 0 0 .866 2.09h8.464a1.225 1.225 0 0 0 1.225-1.225v-8.466a1.223 1.223 0 0 0-1.234-1.227l-.004.003Z" fill="#0D2468" fill-opacity=".9"/></symbol><symbol fill="none" viewBox="0 0 29 68" id="right-arrow" xmlns="http://www.w3.org/2000/svg"><path d="M1.457 65.023a4.818 4.818 0 0 1 .1-4.985l14.798-23.394a5 5 0 0 0 .026-5.304L1.519 7.322a4.666 4.666 0 0 1 0-4.91c1.824-2.948 6.111-2.948 7.935 0l17.918 28.957a5 5 0 0 1 0 5.262L9.726 65.148c-1.917 3.099-6.447 3.03-8.269-.125Z" fill="#0D2468" fill-opacity=".9"/></symbol><symbol fill="none" viewBox="0 0 29 68" id="right-arrow" xmlns="http://www.w3.org/2000/svg"><path d="M1.457 65.023a4.818 4.818 0 0 1 .1-4.985l14.798-23.394a5 5 0 0 0 .026-5.304L1.519 7.322a4.666 4.666 0 0 1 0-4.91c1.824-2.948 6.111-2.948 7.935 0l17.918 28.957a5 5 0 0 1 0 5.262L9.726 65.148c-1.917 3.099-6.447 3.03-8.269-.125Z" fill="#0D2468" fill-opacity=".9"/></symbol><symbol fill="none" viewBox="0 0 13 14" id="save" xmlns="http://www.w3.org/2000/svg"><path d="M13 3.111v9.333c0 .428-.142.795-.425 1.1a1.34 1.34 0 0 1-1.02.456H1.446c-.398 0-.738-.152-1.021-.457A1.555 1.555 0 0 1 0 12.444V1.556C0 1.128.142.76.425.456A1.34 1.34 0 0 1 1.445 0h8.666L13 3.111Zm-1.444.661L9.497 1.556H1.444v10.888h10.112V3.772ZM6.5 11.667c.602 0 1.113-.227 1.535-.68.421-.455.632-1.006.632-1.654 0-.648-.211-1.199-.632-1.652C7.613 7.227 7.102 7 6.5 7c-.602 0-1.113.227-1.535.68-.421.454-.632 1.005-.632 1.653 0 .648.211 1.2.632 1.653.422.454.933.68 1.535.68ZM2.167 5.444h6.5v-3.11h-6.5v3.11Zm-.723-1.672v8.672V1.556v2.216Z" fill="#FDFDFD"/></symbol><symbol fill="none" viewBox="0 0 13 14" id="save" xmlns="http://www.w3.org/2000/svg"><path d="M13 3.111v9.333c0 .428-.142.795-.425 1.1a1.34 1.34 0 0 1-1.02.456H1.446c-.398 0-.738-.152-1.021-.457A1.555 1.555 0 0 1 0 12.444V1.556C0 1.128.142.76.425.456A1.34 1.34 0 0 1 1.445 0h8.666L13 3.111Zm-1.444.661L9.497 1.556H1.444v10.888h10.112V3.772ZM6.5 11.667c.602 0 1.113-.227 1.535-.68.421-.455.632-1.006.632-1.654 0-.648-.211-1.199-.632-1.652C7.613 7.227 7.102 7 6.5 7c-.602 0-1.113.227-1.535.68-.421.454-.632 1.005-.632 1.653 0 .648.211 1.2.632 1.653.422.454.933.68 1.535.68ZM2.167 5.444h6.5v-3.11h-6.5v3.11Zm-.723-1.672v8.672V1.556v2.216Z" fill="#FDFDFD"/></symbol><symbol fill="none" viewBox="0 0 75 110" id="smartphone" xmlns="http://www.w3.org/2000/svg"><path d="M59.513 6.875c1.946 0 3.812.724 5.188 2.014 1.376 1.289 2.149 3.038 2.149 4.861v82.5c0 1.823-.773 3.572-2.15 4.861-1.375 1.29-3.242 2.014-5.188 2.014H15.488c-1.946 0-3.812-.724-5.188-2.014-1.376-1.289-2.149-3.038-2.149-4.861v-82.5c0-1.823.773-3.572 2.15-4.861 1.375-1.29 3.241-2.014 5.188-2.014h44.025ZM15.486 0C11.595 0 7.863 1.449 5.111 4.027 2.359 6.606.813 10.103.813 13.75v82.5c0 3.647 1.546 7.144 4.298 9.723C7.863 108.551 11.595 110 15.488 110h44.025c3.892 0 7.624-1.449 10.376-4.027 2.752-2.579 4.299-6.076 4.299-9.723v-82.5c0-3.647-1.547-7.144-4.299-9.723C67.137 1.45 63.405 0 59.513 0H15.486Z" fill="#0D2468" fill-opacity=".9"/><path d="M37.5 96.25c1.946 0 3.812-.724 5.188-2.014 1.377-1.289 2.15-3.038 2.15-4.861s-.773-3.572-2.15-4.861c-1.376-1.29-3.242-2.014-5.188-2.014-1.946 0-3.812.724-5.188 2.014-1.376 1.289-2.15 3.038-2.15 4.861s.774 3.572 2.15 4.861c1.376 1.29 3.242 2.014 5.188 2.014Z" fill="#0D2468" fill-opacity=".9"/></symbol><symbol fill="none" viewBox="0 0 75 110" id="smartphone" xmlns="http://www.w3.org/2000/svg"><path d="M59.513 6.875c1.946 0 3.812.724 5.188 2.014 1.376 1.289 2.149 3.038 2.149 4.861v82.5c0 1.823-.773 3.572-2.15 4.861-1.375 1.29-3.242 2.014-5.188 2.014H15.488c-1.946 0-3.812-.724-5.188-2.014-1.376-1.289-2.149-3.038-2.149-4.861v-82.5c0-1.823.773-3.572 2.15-4.861 1.375-1.29 3.241-2.014 5.188-2.014h44.025ZM15.486 0C11.595 0 7.863 1.449 5.111 4.027 2.359 6.606.813 10.103.813 13.75v82.5c0 3.647 1.546 7.144 4.298 9.723C7.863 108.551 11.595 110 15.488 110h44.025c3.892 0 7.624-1.449 10.376-4.027 2.752-2.579 4.299-6.076 4.299-9.723v-82.5c0-3.647-1.547-7.144-4.299-9.723C67.137 1.45 63.405 0 59.513 0H15.486Z" fill="#0D2468" fill-opacity=".9"/><path d="M37.5 96.25c1.946 0 3.812-.724 5.188-2.014 1.377-1.289 2.15-3.038 2.15-4.861s-.773-3.572-2.15-4.861c-1.376-1.29-3.242-2.014-5.188-2.014-1.946 0-3.812.724-5.188 2.014-1.376 1.289-2.15 3.038-2.15 4.861s.774 3.572 2.15 4.861c1.376 1.29 3.242 2.014 5.188 2.014Z" fill="#0D2468" fill-opacity=".9"/></symbol><symbol fill="none" viewBox="0 0 99 95" id="star" xmlns="http://www.w3.org/2000/svg"><path d="M98.647 35.756a7.037 7.037 0 0 0-2.32-3.333 7.088 7.088 0 0 0-3.782-1.506l-26.243-2.252-10.286-24.35a7.023 7.023 0 0 0-2.597-3.138 7.07 7.07 0 0 0-7.816 0 7.023 7.023 0 0 0-2.596 3.137L32.751 28.665 6.478 30.931a7.087 7.087 0 0 0-3.8 1.498A7.037 7.037 0 0 0 .346 35.77 7.008 7.008 0 0 0 .26 39.84a7.035 7.035 0 0 0 2.191 3.434l19.933 17.34-5.974 25.75a7.008 7.008 0 0 0 .26 4.054 7.041 7.041 0 0 0 2.466 3.237 7.09 7.09 0 0 0 7.808.336L49.48 80.354 72.064 93.99a7.095 7.095 0 0 0 7.808-.336 7.041 7.041 0 0 0 2.467-3.237 7.008 7.008 0 0 0 .26-4.054l-5.97-25.776 19.928-17.314a7.034 7.034 0 0 0 2.187-3.444 7.007 7.007 0 0 0-.097-4.073Zm-6.725 2.2L71.994 55.268a7.035 7.035 0 0 0-2.087 3.144 7.007 7.007 0 0 0-.158 3.766l5.987 25.794L53.17 74.337a7.05 7.05 0 0 0-7.309 0L23.326 87.973l5.948-25.777a7.008 7.008 0 0 0-.158-3.765 7.036 7.036 0 0 0-2.087-3.145L7.092 37.982a.163.163 0 0 1 0-.04l26.265-2.26a7.091 7.091 0 0 0 3.549-1.328 7.044 7.044 0 0 0 2.35-2.962L49.51 7.072l10.252 24.32a7.043 7.043 0 0 0 2.35 2.962 7.09 7.09 0 0 0 3.549 1.327l26.269 2.261v.03l-.01-.017Z" fill="#0D2468" fill-opacity=".9"/></symbol><symbol fill="none" viewBox="0 0 99 95" id="star" xmlns="http://www.w3.org/2000/svg"><path d="M98.647 35.756a7.037 7.037 0 0 0-2.32-3.333 7.088 7.088 0 0 0-3.782-1.506l-26.243-2.252-10.286-24.35a7.023 7.023 0 0 0-2.597-3.138 7.07 7.07 0 0 0-7.816 0 7.023 7.023 0 0 0-2.596 3.137L32.751 28.665 6.478 30.931a7.087 7.087 0 0 0-3.8 1.498A7.037 7.037 0 0 0 .346 35.77 7.008 7.008 0 0 0 .26 39.84a7.035 7.035 0 0 0 2.191 3.434l19.933 17.34-5.974 25.75a7.008 7.008 0 0 0 .26 4.054 7.041 7.041 0 0 0 2.466 3.237 7.09 7.09 0 0 0 7.808.336L49.48 80.354 72.064 93.99a7.095 7.095 0 0 0 7.808-.336 7.041 7.041 0 0 0 2.467-3.237 7.008 7.008 0 0 0 .26-4.054l-5.97-25.776 19.928-17.314a7.034 7.034 0 0 0 2.187-3.444 7.007 7.007 0 0 0-.097-4.073Zm-6.725 2.2L71.994 55.268a7.035 7.035 0 0 0-2.087 3.144 7.007 7.007 0 0 0-.158 3.766l5.987 25.794L53.17 74.337a7.05 7.05 0 0 0-7.309 0L23.326 87.973l5.948-25.777a7.008 7.008 0 0 0-.158-3.765 7.036 7.036 0 0 0-2.087-3.145L7.092 37.982a.163.163 0 0 1 0-.04l26.265-2.26a7.091 7.091 0 0 0 3.549-1.328 7.044 7.044 0 0 0 2.35-2.962L49.51 7.072l10.252 24.32a7.043 7.043 0 0 0 2.35 2.962 7.09 7.09 0 0 0 3.549 1.327l26.269 2.261v.03l-.01-.017Z" fill="#0D2468" fill-opacity=".9"/></symbol><symbol fill="none" viewBox="0 0 25 26" id="status" xmlns="http://www.w3.org/2000/svg"><path d="M12.497.5c.694 0 1.374.057 2.04.165l-2.34 2.34a9.999 9.999 0 1 0 10.294 10.31l2.342-2.34A12.5 12.5 0 0 1 4.41 22.529 12.5 12.5 0 0 1 12.497.5Zm11.101 1.405a4.785 4.785 0 0 0-6.767 0l-6.46 6.46a1.25 1.25 0 0 0-.3.485l-2.46 7.3a1.375 1.375 0 0 0 1.74 1.742l7.3-2.454a1.25 1.25 0 0 0 .488-.3l6.46-6.463a4.786 4.786 0 0 0 0-6.77Zm-5 1.767a2.285 2.285 0 1 1 3.233 3.233l-6.255 6.253-4.872 1.64 1.64-4.87L18.6 3.671Z" fill="#D96A10"/></symbol><symbol fill="none" viewBox="0 0 25 26" id="status" xmlns="http://www.w3.org/2000/svg"><path d="M12.497.5c.694 0 1.374.057 2.04.165l-2.34 2.34a9.999 9.999 0 1 0 10.294 10.31l2.342-2.34A12.5 12.5 0 0 1 4.41 22.529 12.5 12.5 0 0 1 12.497.5Zm11.101 1.405a4.785 4.785 0 0 0-6.767 0l-6.46 6.46a1.25 1.25 0 0 0-.3.485l-2.46 7.3a1.375 1.375 0 0 0 1.74 1.742l7.3-2.454a1.25 1.25 0 0 0 .488-.3l6.46-6.463a4.786 4.786 0 0 0 0-6.77Zm-5 1.767a2.285 2.285 0 1 1 3.233 3.233l-6.255 6.253-4.872 1.64 1.64-4.87L18.6 3.671Z" fill="#D96A10"/></symbol><symbol fill="none" viewBox="0 0 96 78" id="study" xmlns="http://www.w3.org/2000/svg"><path d="M47.667 0 0 26l17.333 9.447v26L47.667 78 78 61.447v-26l8.667-4.724v29.944h8.666V26L47.667 0ZM77.22 26 47.667 42.12 18.113 26 47.667 9.88 77.22 26Zm-7.887 30.333L47.667 68.12 26 56.333V40.17L47.667 52l21.666-11.83v16.163Z" fill="#D96A10"/></symbol><symbol fill="none" viewBox="0 0 96 78" id="study" xmlns="http://www.w3.org/2000/svg"><path d="M47.667 0 0 26l17.333 9.447v26L47.667 78 78 61.447v-26l8.667-4.724v29.944h8.666V26L47.667 0ZM77.22 26 47.667 42.12 18.113 26 47.667 9.88 77.22 26Zm-7.887 30.333L47.667 68.12 26 56.333V40.17L47.667 52l21.666-11.83v16.163Z" fill="#D96A10"/></symbol><symbol fill="none" viewBox="0 0 63 59" id="support" xmlns="http://www.w3.org/2000/svg"><path d="M18.389 18.177H44.61M18.39 31.117h19.667M51.166 2a9.9 9.9 0 0 1 6.954 2.843A9.643 9.643 0 0 1 61 11.706v25.882a9.642 9.642 0 0 1-2.88 6.863 9.9 9.9 0 0 1-6.953 2.843h-16.39L18.39 57v-9.706h-6.556a9.9 9.9 0 0 1-6.953-2.843A9.642 9.642 0 0 1 2 37.588V11.706a9.643 9.643 0 0 1 2.88-6.863A9.9 9.9 0 0 1 11.833 2h39.334Z" stroke="#F8F8F8" stroke-width="3" stroke-linecap="round" stroke-linejoin="round"/></symbol><symbol fill="none" viewBox="0 0 63 59" id="support" xmlns="http://www.w3.org/2000/svg"><path d="M18.389 18.177H44.61M18.39 31.117h19.667M51.166 2a9.9 9.9 0 0 1 6.954 2.843A9.643 9.643 0 0 1 61 11.706v25.882a9.642 9.642 0 0 1-2.88 6.863 9.9 9.9 0 0 1-6.953 2.843h-16.39L18.39 57v-9.706h-6.556a9.9 9.9 0 0 1-6.953-2.843A9.642 9.642 0 0 1 2 37.588V11.706a9.643 9.643 0 0 1 2.88-6.863A9.9 9.9 0 0 1 11.833 2h39.334Z" stroke="#F8F8F8" stroke-width="3" stroke-linecap="round" stroke-linejoin="round"/></symbol><symbol fill="none" viewBox="0 0 26 16" id="update" xmlns="http://www.w3.org/2000/svg"><path d="M23.483 9.932c.142-.49.23-1.002.23-1.532 0-3.316-2.998-5.998-6.694-5.998-.953 0-1.851.18-2.671.499C13.528 1.194 11.633 0 9.43 0 6.47 0 4.074 2.148 4.074 4.8c0 .179.04.345.059.52C1.989 6.208.5 8.142.5 10.4c0 3.093 2.798 5.6 6.25 5.6h15.18c1.973 0 3.57-1.43 3.57-3.198 0-1.269-.825-2.35-2.017-2.87Zm-5.127-1.134h-4.462l1.63-1.46C14.88 6.76 13.986 6.4 13 6.4c-1.973 0-3.57 1.43-3.57 3.198s1.597 3.198 3.57 3.198c1.216 0 2.285-.546 2.93-1.373l1.264 1.133c-.981 1.115-2.485 1.846-4.19 1.846-2.958 0-5.356-2.148-5.356-4.8 0-2.65 2.398-4.8 5.357-4.8 1.48 0 2.817.54 3.789 1.405l1.567-1.404v3.994h-.005Z" fill="#FDFDFD"/></symbol><symbol fill="none" viewBox="0 0 26 16" id="update" xmlns="http://www.w3.org/2000/svg"><path d="M23.483 9.932c.142-.49.23-1.002.23-1.532 0-3.316-2.998-5.998-6.694-5.998-.953 0-1.851.18-2.671.499C13.528 1.194 11.633 0 9.43 0 6.47 0 4.074 2.148 4.074 4.8c0 .179.04.345.059.52C1.989 6.208.5 8.142.5 10.4c0 3.093 2.798 5.6 6.25 5.6h15.18c1.973 0 3.57-1.43 3.57-3.198 0-1.269-.825-2.35-2.017-2.87Zm-5.127-1.134h-4.462l1.63-1.46C14.88 6.76 13.986 6.4 13 6.4c-1.973 0-3.57 1.43-3.57 3.198s1.597 3.198 3.57 3.198c1.216 0 2.285-.546 2.93-1.373l1.264 1.133c-.981 1.115-2.485 1.846-4.19 1.846-2.958 0-5.356-2.148-5.356-4.8 0-2.65 2.398-4.8 5.357-4.8 1.48 0 2.817.54 3.789 1.405l1.567-1.404v3.994h-.005Z" fill="#FDFDFD"/></symbol><symbol fill="none" viewBox="0 0 23 23" id="updatefoto" xmlns="http://www.w3.org/2000/svg"><path fill-rule="evenodd" clip-rule="evenodd" d="M20.561 5.19a.719.719 0 0 1-.092.904l-8.81 8.809a.719.719 0 0 1-.326.187l-3.67.958a.72.72 0 0 1-.876-.877l.958-3.668a.746.746 0 0 1 .155-.3l8.842-8.836a.719.719 0 0 1 1.016 0l2.711 2.71a.725.725 0 0 1 .092.113Zm-1.617.395L17.25 3.892l-8.163 8.163-.599 2.293 2.293-.599 8.163-8.164Z" fill="#1C1C1C"/><path d="M18.823 16.445c.262-2.239.345-4.495.25-6.747a.39.39 0 0 1 .112-.287l.943-.943a.19.19 0 0 1 .324.121c.177 2.675.11 5.36-.201 8.024-.226 1.937-1.783 3.456-3.712 3.672-3.349.37-6.729.37-10.078 0-1.928-.216-3.485-1.735-3.711-3.672a44.01 44.01 0 0 1 0-10.226C2.976 4.45 4.532 2.93 6.46 2.715a45.761 45.761 0 0 1 7.656-.204.192.192 0 0 1 .123.326l-.952.95a.384.384 0 0 1-.284.112 44.24 44.24 0 0 0-6.383.245 2.77 2.77 0 0 0-2.443 2.41 42.57 42.57 0 0 0 0 9.89 2.77 2.77 0 0 0 2.443 2.412c3.216.36 6.543.36 9.759 0a2.77 2.77 0 0 0 2.443-2.411Z" fill="#1C1C1C"/></symbol><symbol fill="none" viewBox="0 0 23 23" id="updatefoto" xmlns="http://www.w3.org/2000/svg"><path fill-rule="evenodd" clip-rule="evenodd" d="M20.561 5.19a.719.719 0 0 1-.092.904l-8.81 8.809a.719.719 0 0 1-.326.187l-3.67.958a.72.72 0 0 1-.876-.877l.958-3.668a.746.746 0 0 1 .155-.3l8.842-8.836a.719.719 0 0 1 1.016 0l2.711 2.71a.725.725 0 0 1 .092.113Zm-1.617.395L17.25 3.892l-8.163 8.163-.599 2.293 2.293-.599 8.163-8.164Z" fill="#1C1C1C"/><path d="M18.823 16.445c.262-2.239.345-4.495.25-6.747a.39.39 0 0 1 .112-.287l.943-.943a.19.19 0 0 1 .324.121c.177 2.675.11 5.36-.201 8.024-.226 1.937-1.783 3.456-3.712 3.672-3.349.37-6.729.37-10.078 0-1.928-.216-3.485-1.735-3.711-3.672a44.01 44.01 0 0 1 0-10.226C2.976 4.45 4.532 2.93 6.46 2.715a45.761 45.761 0 0 1 7.656-.204.192.192 0 0 1 .123.326l-.952.95a.384.384 0 0 1-.284.112 44.24 44.24 0 0 0-6.383.245 2.77 2.77 0 0 0-2.443 2.41 42.57 42.57 0 0 0 0 9.89 2.77 2.77 0 0 0 2.443 2.412c3.216.36 6.543.36 9.759 0a2.77 2.77 0 0 0 2.443-2.411Z" fill="#1C1C1C"/></symbol><symbol fill="none" viewBox="0 0 41 41" id="vk" xmlns="http://www.w3.org/2000/svg"><path d="M26.646.5H14.374C3.166.5.5 3.166.5 14.354v12.272C.5 37.832 3.146 40.5 14.354 40.5h12.272c11.206 0 13.874-2.646 13.874-13.854V14.374C40.5 3.166 37.854.5 26.646.5Zm6.146 28.54h-2.918c-1.104 0-1.436-.894-3.416-2.874C24.73 24.5 24 24.292 23.562 24.292c-.604 0-.77.166-.77 1v2.624c0 .71-.23 1.126-2.084 1.126a11.384 11.384 0 0 1-8.896-5.334 23.252 23.252 0 0 1-4.604-9.666c0-.438.166-.834 1-.834h2.916c.75 0 1.02.334 1.314 1.104 1.416 4.168 3.832 7.792 4.812 7.792.376 0 .54-.166.54-1.104v-4.292c-.124-1.958-1.164-2.124-1.164-2.832a.72.72 0 0 1 .748-.668h4.584c.626 0 .834.312.834 1.062v5.792c0 .626.27.834.458.834.376 0 .666-.208 1.354-.896a23.997 23.997 0 0 0 3.584-5.96 1.255 1.255 0 0 1 1.27-.832h2.918c.874 0 1.06.438.874 1.062A36.41 36.41 0 0 1 29.334 21c-.314.48-.44.73 0 1.292.29.438 1.312 1.292 2 2.104 1 .997 1.83 2.151 2.458 3.416.25.812-.168 1.228-1 1.228Z" fill="#D96A10"/></symbol><symbol fill="none" viewBox="0 0 41 41" id="vk" xmlns="http://www.w3.org/2000/svg"><path d="M26.646.5H14.374C3.166.5.5 3.166.5 14.354v12.272C.5 37.832 3.146 40.5 14.354 40.5h12.272c11.206 0 13.874-2.646 13.874-13.854V14.374C40.5 3.166 37.854.5 26.646.5Zm6.146 28.54h-2.918c-1.104 0-1.436-.894-3.416-2.874C24.73 24.5 24 24.292 23.562 24.292c-.604 0-.77.166-.77 1v2.624c0 .71-.23 1.126-2.084 1.126a11.384 11.384 0 0 1-8.896-5.334 23.252 23.252 0 0 1-4.604-9.666c0-.438.166-.834 1-.834h2.916c.75 0 1.02.334 1.314 1.104 1.416 4.168 3.832 7.792 4.812 7.792.376 0 .54-.166.54-1.104v-4.292c-.124-1.958-1.164-2.124-1.164-2.832a.72.72 0 0 1 .748-.668h4.584c.626 0 .834.312.834 1.062v5.792c0 .626.27.834.458.834.376 0 .666-.208 1.354-.896a23.997 23.997 0 0 0 3.584-5.96 1.255 1.255 0 0 1 1.27-.832h2.918c.874 0 1.06.438.874 1.062A36.41 36.41 0 0 1 29.334 21c-.314.48-.44.73 0 1.292.29.438 1.312 1.292 2 2.104 1 .997 1.83 2.151 2.458 3.416.25.812-.168 1.228-1 1.228Z" fill="#D96A10"/></symbol></svg>