<svg width="63" height="59" viewBox="0 0 63 59" fill="none" xmlns="http://www.w3.org/2000/svg">
<path d="M18.3889 18.1765H44.6111M18.3889 31.1176H38.0556M51.1667 2C53.7746 2 56.2758 3.02258 58.1199 4.84279C59.964 6.66299 61 9.13172 61 11.7059V37.5882C61 40.1624 59.964 42.6311 58.1199 44.4513C56.2758 46.2715 53.7746 47.2941 51.1667 47.2941H34.7778L18.3889 57V47.2941H11.8333C9.22537 47.2941 6.72422 46.2715 4.88012 44.4513C3.03601 42.6311 2 40.1624 2 37.5882V11.7059C2 9.13172 3.03601 6.66299 4.88012 4.84279C6.72422 3.02258 9.22537 2 11.8333 2H51.1667Z" stroke="#F8F8F8" stroke-width="3" stroke-linecap="round" stroke-linejoin="round"/>
</svg>
