<svg width="26" height="16" viewBox="0 0 26 16" fill="none" xmlns="http://www.w3.org/2000/svg">
<path d="M23.4834 9.93164C23.625 9.44162 23.7129 8.92972 23.7129 8.40033C23.7129 5.08395 20.7148 2.40197 17.0186 2.40197C16.0664 2.40197 15.168 2.58135 14.3477 2.90074C13.5273 1.19442 11.6328 0 9.43066 0C6.47168 0 4.07422 2.14821 4.07422 4.79956C4.07422 4.97894 4.11328 5.1452 4.13281 5.32021C1.98926 6.20837 0.5 8.14219 0.5 10.3998C0.5 13.493 3.29785 16 6.75 16H21.9307C23.9033 16 25.5 14.5693 25.5 12.8018C25.5 11.533 24.6748 10.4523 23.4834 9.93164ZM18.3564 8.79847H13.8936L15.5244 7.33716C14.8799 6.75964 13.9863 6.40088 13 6.40088C11.0273 6.40088 9.43066 7.83156 9.43066 9.59913C9.43066 11.3667 11.0273 12.7974 13 12.7974C14.2158 12.7974 15.2852 12.2505 15.9297 11.4236L17.1943 12.5567C16.2129 13.6724 14.709 14.4031 13.0049 14.4031C10.0459 14.4031 7.64844 12.2549 7.64844 9.6035C7.64844 6.95215 10.0459 4.80394 13.0049 4.80394C14.4844 4.80394 15.8223 5.34208 16.7939 6.20837L18.3613 4.80394V8.79847H18.3564Z" fill="#FDFDFD"/>
</svg>
