<svg width="25" height="25" viewBox="0 0 25 25" fill="none" xmlns="http://www.w3.org/2000/svg">
<path d="M5.75 6.75H4.5C3.83696 6.75 3.20107 7.01339 2.73223 7.48223C2.26339 7.95107 2 8.58696 2 9.25V20.5C2 21.163 2.26339 21.7989 2.73223 22.2678C3.20107 22.7366 3.83696 23 4.5 23H15.75C16.413 23 17.0489 22.7366 17.5178 22.2678C17.9866 21.7989 18.25 21.163 18.25 20.5V19.25" stroke="#FDFDFD" stroke-width="2.5" stroke-linecap="round" stroke-linejoin="round"/>
<path d="M17 4.25013L20.75 8.00013M22.4813 6.23138C22.9736 5.73908 23.2501 5.07136 23.2501 4.37513C23.2501 3.6789 22.9736 3.01119 22.4813 2.51888C21.9889 2.02658 21.3212 1.75 20.625 1.75C19.9288 1.75 19.2611 2.02658 18.7688 2.51888L8.25 13.0001V16.7501H12L22.4813 6.23138Z" stroke="#FDFDFD" stroke-width="2.5" stroke-linecap="round" stroke-linejoin="round"/>
</svg>
