<svg width="23" height="23" viewBox="0 0 23 23" fill="none" xmlns="http://www.w3.org/2000/svg">
<path fill-rule="evenodd" clip-rule="evenodd" d="M20.5611 5.19019C20.6521 5.32839 20.6927 5.49377 20.6759 5.65842C20.6592 5.82307 20.5861 5.97688 20.4691 6.0939L11.6591 14.9029C11.569 14.993 11.4565 15.0575 11.3333 15.0898L7.66381 16.0481C7.54252 16.0797 7.41505 16.0791 7.29408 16.0463C7.17311 16.0134 7.06283 15.9495 6.97419 15.8609C6.88555 15.7722 6.82163 15.6619 6.78879 15.541C6.75594 15.42 6.7553 15.2925 6.78694 15.1712L7.74527 11.5027C7.77325 11.3926 7.82602 11.2903 7.89956 11.2037L16.7421 2.36694C16.8769 2.23234 17.0596 2.15674 17.25 2.15674C17.4405 2.15674 17.6232 2.23234 17.7579 2.36694L20.4691 5.07711C20.5035 5.11161 20.5343 5.1495 20.5611 5.19019ZM18.9444 5.58502L17.25 3.89165L9.08694 12.0547L8.48798 14.348L10.7813 13.7491L18.9444 5.58502Z" fill="#1C1C1C"/>
<path d="M18.8228 16.4448C19.0848 14.2061 19.1684 11.9501 19.0729 9.69818C19.0709 9.64513 19.0798 9.59222 19.099 9.54275C19.1183 9.49328 19.1476 9.44832 19.1851 9.41068L20.1281 8.46768C20.1538 8.44177 20.1865 8.42385 20.2222 8.41607C20.258 8.4083 20.2952 8.411 20.3294 8.42385C20.3636 8.43671 20.3933 8.45917 20.4151 8.48853C20.4368 8.5179 20.4497 8.55292 20.452 8.58939C20.6295 11.2643 20.5621 13.9499 20.2507 16.6126C20.0246 18.5503 18.4682 20.0693 16.5391 20.2849C13.1901 20.6558 9.81032 20.6558 6.46128 20.2849C4.53311 20.0693 2.97582 18.5503 2.74965 16.6126C2.35233 13.2157 2.35233 9.78404 2.74965 6.38714C2.97582 4.44939 4.53215 2.93043 6.46128 2.71481C9.00313 2.43295 11.5641 2.36467 14.1174 2.51068C14.1539 2.51331 14.189 2.52635 14.2183 2.54826C14.2477 2.57018 14.2701 2.60004 14.2831 2.63433C14.296 2.66861 14.2988 2.70588 14.2912 2.74171C14.2835 2.77755 14.2658 2.81045 14.2401 2.83652L13.2884 3.78718C13.2512 3.82432 13.2067 3.85342 13.1577 3.87271C13.1088 3.89199 13.0564 3.90105 13.0038 3.89931C10.8732 3.82688 8.74015 3.90855 6.62132 4.14368C6.00218 4.21221 5.42422 4.48746 4.9808 4.92497C4.53738 5.36247 4.2544 5.93669 4.17757 6.55485C3.79333 9.84032 3.79333 13.1594 4.17757 16.4448C4.2544 17.063 4.53738 17.6372 4.9808 18.0747C5.42422 18.5122 6.00218 18.7875 6.62132 18.856C9.83653 19.2154 13.1639 19.2154 16.38 18.856C16.9992 18.7875 17.5771 18.5122 18.0205 18.0747C18.464 17.6372 18.746 17.063 18.8228 16.4448Z" fill="#1C1C1C"/>
</svg>
