<svg width="41" height="41" viewBox="0 0 41 41" fill="none" xmlns="http://www.w3.org/2000/svg">
<path d="M26.646 0.5H14.374C3.166 0.5 0.5 3.166 0.5 14.354V26.626C0.5 37.832 3.146 40.5 14.354 40.5H26.626C37.832 40.5 40.5 37.854 40.5 26.646V14.374C40.5 3.166 37.854 0.5 26.646 0.5ZM32.792 29.04H29.874C28.77 29.04 28.438 28.146 26.458 26.166C24.73 24.5 24 24.292 23.562 24.292C22.958 24.292 22.792 24.458 22.792 25.292V27.916C22.792 28.626 22.562 29.042 20.708 29.042C18.9087 28.9211 17.1638 28.3744 15.6172 27.4471C14.0705 26.5197 12.7663 25.2382 11.812 23.708C9.54634 20.888 7.96988 17.5783 7.208 14.042C7.208 13.604 7.374 13.208 8.208 13.208H11.124C11.874 13.208 12.144 13.542 12.438 14.312C13.854 18.48 16.27 22.104 17.25 22.104C17.626 22.104 17.79 21.938 17.79 21V16.708C17.666 14.75 16.626 14.584 16.626 13.876C16.6394 13.6893 16.7249 13.5151 16.8646 13.3904C17.0042 13.2657 17.1869 13.2002 17.374 13.208H21.958C22.584 13.208 22.792 13.52 22.792 14.27V20.062C22.792 20.688 23.062 20.896 23.25 20.896C23.626 20.896 23.916 20.688 24.604 20C26.0817 18.1979 27.2891 16.1902 28.188 14.04C28.2799 13.7817 28.4537 13.5606 28.6831 13.4104C28.9124 13.2602 29.1845 13.1891 29.458 13.208H32.376C33.25 13.208 33.436 13.646 33.25 14.27C32.189 16.6469 30.8761 18.9031 29.334 21C29.02 21.48 28.894 21.73 29.334 22.292C29.624 22.73 30.646 23.584 31.334 24.396C32.3338 25.3933 33.1641 26.5471 33.792 27.812C34.042 28.624 33.624 29.04 32.792 29.04Z" fill="#D96A10"/>
</svg>
