<svg width="27" height="27" viewBox="0 0 27 27" fill="none" xmlns="http://www.w3.org/2000/svg">
<path d="M13.125 0.375C10.5291 0.375 7.99154 1.14477 5.83315 2.58696C3.67475 4.02916 1.99249 6.079 0.999087 8.47728C0.00568684 10.8756 -0.254232 13.5146 0.252199 16.0606C0.75863 18.6066 2.00867 20.9452 3.84423 22.7808C5.67979 24.6163 8.01845 25.8664 10.5644 26.3728C13.1104 26.8792 15.7494 26.6193 18.1477 25.6259C20.546 24.6325 22.5959 22.9503 24.038 20.7919C25.4802 18.6335 26.25 16.0959 26.25 13.5C26.25 10.019 24.8672 6.68064 22.4058 4.21922C19.9444 1.75781 16.606 0.375 13.125 0.375ZM11.25 18.7406L6.56251 14.0531L8.05313 12.5625L11.25 15.7594L18.1969 8.8125L19.6931 10.2994L11.25 18.7406Z" fill="#F24E1E"/>
</svg>
