<svg width="38" height="37" viewBox="0 0 38 37" fill="none" xmlns="http://www.w3.org/2000/svg">
<path d="M18.6958 0.620605C8.38866 0.620605 0.195801 8.48575 0.195801 18.3806C0.195801 28.2755 8.38866 36.1406 18.6958 36.1406C29.0029 36.1406 37.1958 28.2755 37.1958 18.3806C37.1958 8.48575 29.0029 0.620605 18.6958 0.620605ZM18.6958 33.6035C9.97437 33.6035 2.83866 26.7532 2.83866 18.3806C2.83866 10.008 9.97437 3.15775 18.6958 3.15775C27.4172 3.15775 34.5529 10.008 34.5529 18.3806C34.5529 26.7532 27.4172 33.6035 18.6958 33.6035Z" fill="#D96A10"/>
<path d="M25.8315 27.2605L18.6958 20.4102L11.5601 27.2605L9.4458 25.2308L16.5815 18.3805L9.4458 11.5302L11.5601 9.50049L18.6958 16.3508L25.8315 9.50049L27.9458 11.5302L20.8101 18.3805L27.9458 25.2308L25.8315 27.2605Z" fill="#D96A10"/>
</svg>
