<svg width="27" height="27" viewBox="0 0 27 27" fill="none" xmlns="http://www.w3.org/2000/svg">
<path d="M23.625 15.75V21.375C23.625 21.9717 23.3879 22.544 22.966 22.966C22.544 23.3879 21.9717 23.625 21.375 23.625H5.625C5.02826 23.625 4.45597 23.3879 4.03401 22.966C3.61205 22.544 3.375 21.9717 3.375 21.375V5.625C3.375 5.02826 3.61205 4.45597 4.03401 4.03401C4.45597 3.61205 5.02826 3.375 5.625 3.375H11.25V5.625H5.625V21.375H21.375V15.75H23.625Z" fill="#FDFDFD"/>
<path d="M23.625 7.875H19.125V3.375H16.875V7.875H12.375V10.125H16.875V14.625H19.125V10.125H23.625V7.875Z" fill="#FDFDFD"/>
</svg>
