<svg width="100" height="86" viewBox="0 0 100 86" fill="none" xmlns="http://www.w3.org/2000/svg">
<path d="M98.2601 24.3914C97.5081 23.656 96.5782 23.1878 95.5885 23.0463C94.5988 22.9048 93.594 23.0964 92.7015 23.5968L71.78 35.2817L54.3128 2.73697C53.8638 1.90185 53.23 1.21104 52.473 0.731512C51.7159 0.251981 50.8613 0 49.9918 0C49.1224 0 48.2677 0.251981 47.5107 0.731512C46.7536 1.21104 46.1199 1.90185 45.6709 2.73697L28.2036 35.2958L7.29045 23.6109C6.40018 23.1149 5.39915 22.925 4.41298 23.0648C3.42681 23.2047 2.49944 23.6682 1.74725 24.3971C0.995048 25.126 0.451534 26.0879 0.184909 27.1621C-0.0817154 28.2362 -0.0595727 29.3748 0.248559 30.4348L15.6657 83.4188C15.8207 83.9511 16.0803 84.4375 16.4254 84.8422C16.7704 85.2469 17.1921 85.5595 17.6593 85.7569C18.1264 85.9543 18.6271 86.0315 19.1245 85.9827C19.6218 85.934 20.103 85.7606 20.5325 85.4754C20.6367 85.4053 31.2912 78.5205 49.9918 78.5205C68.6924 78.5205 79.3469 85.4052 79.4428 85.4707C79.8725 85.7587 80.3546 85.9344 80.8531 85.9849C81.3517 86.0353 81.854 85.9592 82.3227 85.762C82.7914 85.5649 83.2146 85.2519 83.5607 84.8463C83.9068 84.4406 84.1671 83.9527 84.3221 83.4188L99.7393 30.4489C100.056 29.3885 100.085 28.2463 99.8215 27.1676C99.5581 26.089 99.0145 25.1226 98.2601 24.3914ZM79.1594 77.0389C74.1593 74.6598 64.1923 71.0422 49.9918 71.0422C35.7914 71.0422 25.8244 74.6598 20.8242 77.0389L7.7863 32.2483L26.5661 42.7507C27.7028 43.3795 29.0083 43.508 30.2253 43.111C31.4423 42.7139 32.4826 41.82 33.1413 40.6054L49.9918 9.18703L66.8424 40.596C67.501 41.8095 68.5406 42.7026 69.7566 43.0996C70.9727 43.4966 72.2771 43.3688 73.4134 42.7414L92.1974 32.2483L79.1594 77.0389Z" fill="white"/>
</svg>
