<svg width="119" height="107" viewBox="0 0 119 107" fill="none" xmlns="http://www.w3.org/2000/svg">
<path d="M116.447 30.3475C115.56 29.4324 114.462 28.8499 113.294 28.6739C112.127 28.4979 110.941 28.7363 109.888 29.3589L85.2004 43.897L64.5891 3.4053C64.0593 2.36626 63.3114 1.50676 62.4181 0.910137C61.5248 0.313511 60.5163 0 59.4904 0C58.4645 0 57.4559 0.313511 56.5626 0.910137C55.6693 1.50676 54.9215 2.36626 54.3916 3.4053L33.7803 43.9145L9.10274 29.3763C8.05221 28.7592 6.87099 28.5229 5.70732 28.6969C4.54364 28.871 3.44934 29.4476 2.56175 30.3545C1.67416 31.2614 1.03281 32.4582 0.718193 33.7947C0.403576 35.1311 0.429704 36.5477 0.793299 37.8666L18.9856 103.789C19.1685 104.451 19.4748 105.056 19.882 105.56C20.2891 106.063 20.7867 106.452 21.3379 106.698C21.8892 106.943 22.48 107.039 23.0669 106.979C23.6537 106.918 24.2215 106.702 24.7284 106.347C24.8513 106.26 37.4237 97.6941 59.4904 97.6941C81.5571 97.6941 94.1294 106.26 94.2425 106.341C94.7496 106.7 95.3184 106.918 95.9067 106.981C96.495 107.044 97.0877 106.949 97.6408 106.704C98.1939 106.459 98.6932 106.069 99.1016 105.565C99.5101 105.06 99.8172 104.453 100 103.789L118.192 37.884C118.566 36.5647 118.6 35.1437 118.289 33.8016C117.979 32.4595 117.337 31.2572 116.447 30.3475ZM93.9081 95.8507C88.008 92.8907 76.2469 88.3897 59.4904 88.3897C42.7338 88.3897 30.9728 92.8907 25.0726 95.8507L9.68784 40.1229L31.848 53.1898C33.1893 53.9722 34.7297 54.1321 36.1658 53.6381C37.6019 53.144 38.8294 52.0318 39.6067 50.5206L59.4904 11.4304L79.374 50.509C80.1512 52.0188 81.3779 53.1299 82.8128 53.6239C84.2477 54.1179 85.787 53.9589 87.1278 53.1782L109.293 40.1229L93.9081 95.8507Z" fill="#0D2468" fill-opacity="0.9"/>
</svg>
