<svg width="22" height="28" viewBox="0 0 22 28" fill="none" xmlns="http://www.w3.org/2000/svg">
<path d="M5.5 22.4H16.5V19.6H5.5V22.4ZM5.5 16.8H16.5V14H5.5V16.8ZM2.75 28C1.99375 28 1.34613 27.7256 0.807127 27.1768C0.268127 26.628 -0.000914332 25.9691 2.33447e-06 25.2V2.8C2.33447e-06 2.03 0.269502 1.3706 0.808502 0.821802C1.3475 0.273002 1.99467 -0.000930956 2.75 2.37691e-06H13.75L22 8.4V25.2C22 25.97 21.7305 26.6294 21.1915 27.1782C20.6525 27.727 20.0053 28.0009 19.25 28H2.75ZM12.375 9.8V2.8H2.75V25.2H19.25V9.8H12.375Z" fill="#D96A10"/>
</svg>
