<svg width="63" height="91" viewBox="0 0 63 91" fill="none" xmlns="http://www.w3.org/2000/svg">
<path d="M50.4 5.6875C52.0709 5.6875 53.6733 6.28672 54.8548 7.35333C56.0363 8.41994 56.7 9.86658 56.7 11.375V79.625C56.7 81.1334 56.0363 82.5801 54.8548 83.6467C53.6733 84.7133 52.0709 85.3125 50.4 85.3125H12.6C10.9291 85.3125 9.32671 84.7133 8.14523 83.6467C6.96375 82.5801 6.3 81.1334 6.3 79.625V11.375C6.3 9.86658 6.96375 8.41994 8.14523 7.35333C9.32671 6.28672 10.9291 5.6875 12.6 5.6875H50.4ZM12.6 0C9.25827 0 6.05341 1.19843 3.69045 3.33166C1.3275 5.46489 0 8.35816 0 11.375V79.625C0 82.6418 1.3275 85.5351 3.69045 87.6683C6.05341 89.8016 9.25827 91 12.6 91H50.4C53.7417 91 56.9466 89.8016 59.3095 87.6683C61.6725 85.5351 63 82.6418 63 79.625V11.375C63 8.35816 61.6725 5.46489 59.3095 3.33166C56.9466 1.19843 53.7417 0 50.4 0L12.6 0Z" fill="white"/>
<path d="M31.5 79.625C33.1708 79.625 34.7732 79.0258 35.9547 77.9592C37.1362 76.8926 37.8 75.4459 37.8 73.9375C37.8 72.4291 37.1362 70.9824 35.9547 69.9158C34.7732 68.8492 33.1708 68.25 31.5 68.25C29.8291 68.25 28.2267 68.8492 27.0452 69.9158C25.8637 70.9824 25.2 72.4291 25.2 73.9375C25.2 75.4459 25.8637 76.8926 27.0452 77.9592C28.2267 79.0258 29.8291 79.625 31.5 79.625Z" fill="white"/>
</svg>
