<svg width="99" height="95" viewBox="0 0 99 95" fill="none" xmlns="http://www.w3.org/2000/svg">
<path d="M98.647 35.7559C98.2189 34.4424 97.4121 33.2833 96.3271 32.423C95.242 31.5626 93.9267 31.039 92.5448 30.9174L66.3023 28.6653L56.0157 4.31422C55.4801 3.03648 54.5767 1.94504 53.4193 1.17734C52.2619 0.40964 50.9022 0 49.5114 0C48.1206 0 46.7608 0.40964 45.6034 1.17734C44.446 1.94504 43.5426 3.03648 43.0071 4.31422L32.7513 28.6653L6.47788 30.9306C5.09057 31.0466 3.76856 31.5678 2.67763 32.4289C1.5867 33.2899 0.775418 34.4523 0.345515 35.7705C-0.0843883 37.0887 -0.113773 38.5038 0.261047 39.8386C0.635867 41.1733 1.39821 42.3681 2.45246 43.2733L22.3851 60.6128L16.4111 86.3627C16.0952 87.7102 16.1853 89.1205 16.6702 90.4173C17.1551 91.7141 18.0133 92.8398 19.1374 93.6537C20.2615 94.4676 21.6016 94.9336 22.9904 94.9934C24.3791 95.0532 25.7547 94.7042 26.9452 93.99L49.4804 80.3541L72.0643 93.99C73.2548 94.7042 74.6304 95.0532 76.0191 94.9934C77.4078 94.9336 78.748 94.4676 79.8721 93.6537C80.9962 92.8398 81.8544 91.7141 82.3393 90.4173C82.8242 89.1205 82.9143 87.7102 82.5984 86.3627L76.6288 60.5865L96.557 43.2733C97.6111 42.365 98.372 41.1668 98.7438 39.8292C99.1157 38.4916 99.082 37.0745 98.647 35.7559ZM91.9218 37.9553L71.9936 55.2685C71.0237 56.1083 70.3022 57.1955 69.9067 58.4131C69.5111 59.6307 69.4566 60.9326 69.7489 62.1788L75.7362 87.9726L53.17 74.3367C52.0691 73.6693 50.8048 73.3162 49.5158 73.3162C48.2267 73.3162 46.9625 73.6693 45.8615 74.3367L23.3263 87.9726L29.2738 62.1964C29.5661 60.9502 29.5116 59.6483 29.1161 58.4307C28.7206 57.2131 27.999 56.1259 27.0291 55.286L7.09207 37.9817C7.09046 37.9685 7.09046 37.9552 7.09207 37.9421L33.3567 35.6812C34.639 35.5686 35.8661 35.1097 36.9057 34.354C37.9452 33.5982 38.7577 32.5742 39.2556 31.3925L49.5114 7.07219L59.7627 31.3925C60.2606 32.5742 61.0731 33.5982 62.1127 34.354C63.1522 35.1097 64.3793 35.5686 65.6616 35.6812L91.9307 37.9421V37.9729L91.9218 37.9553Z" fill="#0D2468" fill-opacity="0.9"/>
</svg>
