<svg width="100" height="100" viewBox="0 0 100 100" fill="none" xmlns="http://www.w3.org/2000/svg">
<path d="M99.6435 37.6378C99.211 36.2552 98.3961 35.0351 97.3 34.1294C96.204 33.2238 94.8754 32.6726 93.4796 32.5446L66.972 30.174L56.5815 4.54129C56.0405 3.19629 55.128 2.04741 53.9589 1.23931C52.7898 0.4312 51.4163 0 50.0115 0C48.6066 0 47.2332 0.4312 46.0641 1.23931C44.895 2.04741 43.9825 3.19629 43.4415 4.54129L33.0821 30.174L6.54331 32.5585C5.14199 32.6807 3.80663 33.2293 2.70468 34.1356C1.60273 35.042 0.78325 36.2656 0.349005 37.6532C-0.0852407 39.0407 -0.114922 40.5303 0.263684 41.9353C0.64229 43.3403 1.41233 44.598 2.47724 45.5508L22.6112 63.803L16.5768 90.9081C16.2577 92.3265 16.3488 93.811 16.8386 95.1761C17.3284 96.5411 18.1952 97.7261 19.3307 98.5828C20.4661 99.4396 21.8198 99.9301 23.2226 99.9931C24.6253 100.056 26.0148 99.6886 27.2174 98.9368L49.9802 84.5833L72.7922 98.9368C73.9948 99.6886 75.3843 100.056 76.787 99.9931C78.1897 99.9301 79.5434 99.4396 80.6789 98.5828C81.8144 97.7261 82.6812 96.5411 83.171 95.1761C83.6608 93.811 83.7518 92.3265 83.4327 90.9081L77.4028 63.7752L97.5323 45.5508C98.5971 44.5947 99.3656 43.3334 99.7413 41.9255C100.117 40.5175 100.083 39.0258 99.6435 37.6378ZM92.8503 39.9529L72.7208 58.1773C71.7411 59.0614 71.0123 60.2058 70.6128 61.4875C70.2133 62.7692 70.1582 64.1396 70.4534 65.4513L76.5012 92.6027L53.7071 78.2492C52.595 77.5466 51.318 77.175 50.0159 77.175C48.7139 77.175 47.4369 77.5466 46.3248 78.2492L23.5619 92.6027L29.5695 65.4699C29.8648 64.1581 29.8097 62.7877 29.4102 61.506C29.0107 60.2243 28.2819 59.0799 27.3022 58.1958L7.16371 39.9807C7.16208 39.9669 7.16208 39.9529 7.16371 39.939L33.6936 37.5591C34.9889 37.4407 36.2284 36.9576 37.2784 36.1621C38.3285 35.3665 39.1492 34.2886 39.6521 33.0447L50.0115 7.44441L60.3664 33.0447C60.8693 34.2886 61.69 35.3665 62.7401 36.1621C63.7901 36.9576 65.0296 37.4407 66.3249 37.5591L92.8592 39.939V39.9714L92.8503 39.9529Z" fill="white" fill-opacity="0.9"/>
</svg>
