<svg width="25" height="26" viewBox="0 0 25 26" fill="none" xmlns="http://www.w3.org/2000/svg">
<path d="M12.4966 0.5C13.1915 0.5 13.8715 0.5575 14.5364 0.665L12.1966 3.005C10.2459 3.06354 8.35506 3.69163 6.75703 4.81185C5.15899 5.93207 3.92366 7.49546 3.20331 9.30928C2.48296 11.1231 2.30908 13.1081 2.70311 15.0196C3.09713 16.931 4.04184 18.6854 5.42077 20.0664C6.7997 21.4474 8.55258 22.3948 10.4633 22.7916C12.3741 23.1884 14.3592 23.0174 16.174 22.2997C17.9887 21.5819 19.5538 20.3488 20.6763 18.7523C21.7987 17.1558 22.4295 15.2657 22.4909 13.315L24.8333 10.975C25.2478 13.5 24.8774 16.0915 23.7722 18.3993C22.667 20.7071 20.8802 22.6201 18.6532 23.8799C16.4261 25.1398 13.8661 25.6858 11.3189 25.4441C8.77163 25.2025 6.35991 24.1849 4.40944 22.5288C2.45896 20.8726 1.0637 18.6577 0.412102 16.1833C-0.239496 13.7088 -0.116039 11.094 0.765798 8.69191C1.64764 6.28985 3.24537 4.2163 5.3432 2.75133C7.44104 1.28636 9.93791 0.500535 12.4966 0.5ZM23.5984 1.905C23.154 1.4606 22.6266 1.10808 22.046 0.867564C21.4655 0.627052 20.8432 0.503262 20.2148 0.503262C19.5864 0.503262 18.9642 0.627052 18.3836 0.867564C17.8031 1.10808 17.2756 1.4606 16.8313 1.905L10.3717 8.365C10.2357 8.50139 10.133 8.66737 10.0717 8.85L7.61189 16.15C7.53024 16.3925 7.51789 16.653 7.57621 16.9022C7.63453 17.1513 7.76122 17.3792 7.94202 17.5603C8.12282 17.7414 8.35056 17.8684 8.59962 17.9271C8.84867 17.9858 9.10916 17.9738 9.35178 17.8925L16.6513 15.4375C16.8348 15.3765 17.0017 15.2739 17.1388 15.1375L23.5984 8.675C24.0427 8.23066 24.3952 7.70314 24.6357 7.12255C24.8762 6.54196 25 5.91968 25 5.29125C25 4.66282 24.8762 4.04054 24.6357 3.45995C24.3952 2.87936 24.0427 2.34934 23.5984 1.905ZM18.5987 3.6725C19.0273 3.24384 19.6086 3.00303 20.2148 3.00303C20.821 3.00303 21.4023 3.24384 21.831 3.6725C22.2596 4.10115 22.5004 4.68254 22.5004 5.28875C22.5004 5.89496 22.2596 6.47634 21.831 6.905L15.5764 13.1575L10.7042 14.7975L12.3441 9.9275L18.5987 3.6725Z" fill="#D96A10"/>
</svg>
